<?xml version="1.0" encoding="UTF-8"?>
<!-- Generator: visioncortex VTracer 0.6.5 -->
<svg version="1.1" xmlns="http://www.w3.org/2000/svg" width="1254" height="1254" viewBox="0 0 1254 1254">
<path d="M0 0 C10 2 10 2 13.31 2.78 C42.42 9.47 77.35 9.6 106.04 0.55 C108 0 108 0 111 0 C111 0.58 111 1.16 111 1.75 C111.04 36.02 111.09 70.29 111.18 104.56 C111.19 108.68 111.2 112.79 111.21 116.9 C111.21 117.72 111.21 118.54 111.21 119.38 C111.24 132.65 111.26 145.92 111.27 159.18 C111.29 172.79 111.31 186.4 111.35 200 C111.38 208.4 111.39 216.8 111.39 225.2 C111.39 230.96 111.41 236.71 111.43 242.47 C111.45 245.79 111.45 249.12 111.45 252.44 C111.44 256.04 111.46 259.64 111.48 263.24 C111.48 263.77 111.48 263.77 111.46 266.44 C111.47 267.4 111.48 268.36 111.49 269.35 C111.49 270.18 111.5 271.01 111.5 271.87 C112 274 112 274 114.03 275.79 C114.68 276.19 115.33 276.59 116 277 C115 280 115 280 112.95 281.25 C106.53 283.96 100.24 285.81 93.44 287.25 C92.67 287.41 91.91 287.58 91.12 287.74 C79.7 290.02 68.23 290.24 56.62 290.25 C55.88 290.25 55.13 290.25 54.36 290.25 C34.55 290.24 12.59 289.05 -5 279 C-3.25 275.12 -3.25 275.12 -1 274 C-0.67 183.58 -0.34 93.16 0 0 Z " fill="#629DE0" transform="translate(555,533)"/>
<path d="M0 0 C0.66 0 1.32 0 2 0 C2.59 0.61 3.18 1.22 3.78 1.84 C15.5 13.23 41.83 14.12 57.36 14.2 C58.24 14.21 59.11 14.21 60.01 14.22 C61.85 14.23 63.69 14.24 65.52 14.24 C68.27 14.25 71.01 14.28 73.75 14.31 C93.88 14.43 115.5 12.77 133 2 C134.32 1.34 135.64 0.68 137 0 C137 23.76 137 47.52 137 72 C139.64 72 142.28 72 145 72 C153.18 89.63 151.47 121.24 145.93 139.53 C145.62 140.35 145.32 141.16 145 142 C142.36 142 139.72 142 137 142 C137 145.3 137 148.6 137 152 C137.66 152.19 137.66 152.19 141 153.12 C146.56 154.98 152.06 157.87 155.22 162.98 C156.51 166.33 155.96 168.59 155 172 C141.36 187.08 111 189.05 92 190 C68.65 190.88 45.08 190.97 22 187 C21.11 186.85 20.22 186.7 19.31 186.55 C5.58 184.15 -8.8 181.2 -19 171 C-19.45 167.75 -19.6 165.18 -18.08 162.19 C-13.36 155.97 -8.56 154.78 -1 151 C-0.67 101.17 -0.34 51.34 0 0 Z " fill="#0758B3" transform="translate(542,815)"/>
<path d="M0 0 C0.54 0.58 1.07 1.15 1.62 1.75 C21.37 20.46 63.43 19.19 88.68 19.19 C91.53 19.19 94.38 19.21 97.24 19.22 C113.4 19.27 129.41 18.18 145.31 15.19 C146.22 15.02 147.13 14.85 148.07 14.67 C174.1 9.59 174.1 9.59 182.12 0.62 C184 -1 184 -1 186.93 -0.82 C192.12 0.07 197.05 1.86 202.02 3.57 C203.08 3.93 204.14 4.29 205.23 4.66 C207.48 5.42 209.72 6.19 211.96 6.95 C215.33 8.11 218.7 9.25 222.07 10.39 C231.7 13.66 241.3 16.98 250.71 20.84 C251.38 21.11 252.04 21.38 252.72 21.66 C260.8 25.06 270.8 29.8 275 38 C275.75 41.19 275.78 43.82 275 47 C273.06 49.69 273.06 49.69 270 52 C269.4 52.47 268.81 52.94 268.19 53.42 C244.08 71.11 207.93 74.01 179.19 77.69 C178.4 77.79 177.61 77.89 176.8 78 C150.23 81.42 123.7 82.36 96.95 82.32 C93.66 82.31 90.38 82.32 87.1 82.34 C-53.42 83.11 -53.42 83.11 -90.62 48.56 C-92.56 44.96 -92.93 41.92 -92 38 C-85.33 24.11 -61.18 18.38 -48.06 13.72 C-36.62 9.71 -25.1 5.93 -13.57 2.17 C-11.26 1.41 -8.96 0.64 -6.66 -0.16 C-3.79 -1.07 -2.71 -1.26 0 0 Z " fill="#0758B3" transform="translate(519,994)"/>
<path d="M0 0 C1.8 1.75 3.31 3.41 4.81 5.45 C25.97 30.12 79.44 32.65 109.06 36.19 C110.35 36.34 111.64 36.5 112.96 36.66 C117.3 37.15 121.65 37.59 126 38 C126.45 38.04 126.45 38.04 128.75 38.27 C148.07 40.09 167.31 40.34 186.7 40.32 C190.09 40.31 193.48 40.32 196.86 40.34 C228.57 40.51 260.11 38.97 291.5 34.25 C292.36 34.12 293.22 34 294.1 33.87 C364.35 23.52 364.35 23.52 382 4 C383.31 1.69 383.31 1.69 384 0 C386 1 386 1 386.95 3.34 C387.26 4.36 387.58 5.38 387.91 6.43 C388.26 7.53 388.61 8.64 388.97 9.78 C389.33 10.95 389.69 12.11 390.06 13.31 C390.43 14.47 390.79 15.62 391.17 16.81 C396.78 34.7 396.78 34.7 393.44 42.06 C383.79 59.06 360.97 65.47 343.38 70.5 C292.45 84.56 238.7 88.86 186 88 C184.86 87.98 183.71 87.96 182.53 87.95 C133.24 87.06 82.09 83.37 35 68 C34.17 67.73 33.35 67.46 32.5 67.18 C16.47 61.85 -0.8 55.48 -9.25 39.95 C-11.58 30.76 -7.44 21.47 -4.44 12.88 C-4.01 11.63 -3.59 10.39 -3.15 9.11 C-2.11 6.07 -1.06 3.03 0 0 Z " fill="#0B3E89" transform="translate(418,1044)"/>
<path d="M0 0 C2.2 2.2 2.56 3.33 3.4 6.26 C3.65 7.13 3.9 7.99 4.16 8.88 C4.41 9.81 4.67 10.73 4.94 11.69 C5.2 12.63 5.47 13.58 5.74 14.55 C13.09 41.16 15.5 70.92 9 98 C8.8 98.83 8.6 99.67 8.4 100.53 C5.25 113.31 0.83 125.21 -5 137 C-5.38 137.77 -5.75 138.53 -6.14 139.32 C-14.12 155.37 -23.78 170.22 -33.75 185.09 C-49.11 207.98 -49.11 207.98 -55 219 C-55.41 219.77 -55.82 220.54 -56.25 221.33 C-75.45 257.84 -81.84 297.73 -69.8 337.54 C-66.17 348.68 -61.17 359.31 -55.35 369.46 C-54.51 370.94 -53.75 372.47 -53 374 C-53.33 374.66 -53.66 375.32 -54 376 C-56.53 373.99 -59.05 371.96 -61.56 369.94 C-61.91 369.66 -61.91 369.66 -63.7 368.24 C-93.43 344.26 -113.36 307.19 -117.48 269.28 C-121.74 224.59 -103.99 182.34 -81 145 C-80.48 144.15 -79.95 143.3 -79.42 142.42 C-72.26 130.85 -64.71 119.6 -56.89 108.46 C-33.07 74.44 -12.5 39.76 0 0 Z " fill="#FD7313" transform="translate(628,67)"/>
<path d="M0 0 C0 0.58 0 1.16 0 1.75 C0.04 36.02 0.09 70.29 0.18 104.56 C0.19 108.68 0.2 112.79 0.21 116.9 C0.21 117.72 0.21 118.54 0.21 119.38 C0.24 132.65 0.26 145.92 0.27 159.18 C0.29 172.79 0.31 186.4 0.35 200 C0.38 208.4 0.39 216.8 0.39 225.2 C0.39 230.96 0.41 236.71 0.43 242.47 C0.45 245.79 0.45 249.12 0.45 252.44 C0.44 256.04 0.46 259.64 0.48 263.24 C0.47 264.29 0.47 265.35 0.46 266.44 C0.47 267.4 0.48 268.36 0.49 269.35 C0.49 270.18 0.5 271.01 0.5 271.87 C1 274 1 274 3.03 275.79 C3.68 276.19 4.33 276.59 5 277 C4 280 4 280 1.73 281.28 C-15.91 288.49 -33.19 289.3 -52 289 C-51.35 288.24 -50.7 287.48 -50.03 286.7 C-46.99 282.08 -47.44 277.2 -47.48 271.84 C-47.47 270.71 -47.47 269.58 -47.46 268.42 C-47.44 264.64 -47.45 260.86 -47.45 257.07 C-47.45 254.36 -47.44 251.65 -47.42 248.94 C-47.4 243.11 -47.39 237.27 -47.39 231.44 C-47.39 223 -47.37 214.56 -47.35 206.12 C-47.31 192.43 -47.28 178.74 -47.27 165.05 C-47.26 151.76 -47.24 138.46 -47.21 125.16 C-47.21 124.34 -47.2 123.52 -47.2 122.68 C-47.19 118.57 -47.18 114.45 -47.17 110.34 C-47.09 76.23 -47.04 42.11 -47 8 C-46.22 7.94 -45.44 7.88 -44.63 7.82 C-43.62 7.73 -42.61 7.65 -41.56 7.56 C-40.55 7.48 -39.54 7.4 -38.5 7.32 C-36 7 -36 7 -35 6 C-33.57 5.74 -32.14 5.53 -30.7 5.35 C-29.81 5.23 -28.92 5.12 -28 5 C-27.05 4.87 -26.1 4.75 -25.12 4.62 C-18.24 3.7 -11.6 2.65 -4.96 0.55 C-3 0 -3 0 0 0 Z " fill="#0858B4" transform="translate(666,533)"/>
<path d="M0 0 C0.66 0 1.32 0 2 0 C2 23.76 2 47.52 2 72 C4.64 72 7.28 72 10 72 C18.18 89.63 16.47 121.24 10.93 139.53 C10.62 140.35 10.32 141.16 10 142 C7.36 142 4.72 142 2 142 C2 145.3 2 148.6 2 152 C2.66 152.19 2.66 152.19 6 153.12 C11.56 154.98 17.06 157.87 20.22 162.98 C21.51 166.33 20.96 168.59 20 172 C10.69 182.29 -5.06 184.28 -18 187 C-18.97 187.21 -19.93 187.42 -20.93 187.64 C-25.74 188.21 -30.54 188.1 -35.38 188.06 C-36.4 188.06 -37.42 188.05 -38.47 188.05 C-40.98 188.04 -43.49 188.02 -46 188 C-46.26 187.25 -46.51 186.5 -46.78 185.73 C-48.05 182.88 -49.28 181.46 -51.56 179.38 C-54.75 176.45 -55.93 174.65 -56.12 170.18 C-56.12 169.02 -56.12 167.87 -56.12 166.68 C-56.12 166.04 -56.12 165.39 -56.12 164.73 C-56.12 162.57 -56.12 160.41 -56.11 158.25 C-56.11 156.7 -56.11 155.15 -56.11 153.61 C-56.11 149.4 -56.11 145.2 -56.1 140.99 C-56.1 136.6 -56.09 132.21 -56.09 127.82 C-56.09 119.5 -56.08 111.18 -56.07 102.86 C-56.06 93.39 -56.06 83.92 -56.05 74.45 C-56.04 54.97 -56.02 35.48 -56 16 C-55.22 16.01 -54.44 16.02 -53.63 16.04 C-52.62 16.04 -51.61 16.05 -50.56 16.06 C-49.55 16.07 -48.54 16.09 -47.5 16.1 C-45 16 -45 16 -44 15 C-42.83 14.83 -42.83 14.83 -37 14 C-36.67 13.67 -36.34 13.34 -36 13 C-34.3 12.69 -32.59 12.38 -30.88 12.1 C-20.25 10.35 -7.91 7.91 0 0 Z " fill="#083C88" transform="translate(677,815)"/>
<path d="M0 0 C1.06 -0.01 2.13 -0.02 3.22 -0.03 C5.47 -0.04 7.72 -0.04 9.97 -0.03 C13.4 -0.02 16.82 -0.07 20.25 -0.12 C22.44 -0.13 24.63 -0.13 26.81 -0.12 C27.32 -0.13 27.32 -0.13 29.9 -0.18 C35.98 -0.1 39.36 0.75 43.74 5.06 C52.86 15.92 55.14 36.43 55.28 50.04 C55.28 50.44 55.28 50.44 55.31 52.46 C55.8 103.43 55.8 103.43 43.41 119.35 C40.12 122.47 37.64 122.73 33.28 122.78 C32.8 122.78 32.8 122.78 30.36 122.82 C29.84 122.82 29.84 122.82 27.2 122.84 C26.13 122.85 25.06 122.86 23.96 122.86 C21.69 122.88 19.42 122.89 17.15 122.9 C13.68 122.91 10.22 122.96 6.75 123 C4.55 123.01 2.34 123.02 0.14 123.03 C-0.9 123.04 -1.93 123.06 -3 123.08 C-10.21 123.06 -10.21 123.06 -14.06 120.71 C-23.36 110.38 -24.02 95.71 -24.96 82.6 C-38.82 82.6 -52.68 82.6 -66.96 82.6 C-66.96 69.07 -66.96 55.54 -66.96 41.6 C-53.1 41.6 -39.24 41.6 -24.96 41.6 C-24.96 38.3 -24.96 35 -24.96 31.6 C-24.49 28.69 -23.98 25.95 -23.27 23.1 C-23.09 22.37 -22.92 21.64 -22.73 20.89 C-19.19 7.13 -14.87 -0.03 0 0 Z " fill="#093D88" transform="translate(761.9609375,859.3984375)"/>
<path d="M0 0 C0.66 0 1.32 0 2 0 C2.26 1.04 2.51 2.08 2.78 3.16 C7.18 20.03 15.68 32.82 25.92 46.75 C39.87 65.83 50.31 87.92 46.67 112.17 C43.68 129.24 37.64 143.97 25.76 156.84 C25.3 157.34 24.84 157.84 24.37 158.36 C23.25 159.57 22.12 160.79 21 162 C21.55 162.05 21.55 162.05 24.33 162.32 C28.45 162.72 32.57 163.13 36.69 163.54 C38.46 163.72 40.24 163.89 42.01 164.06 C63.8 166.16 63.8 166.16 69 169 C69.33 169.99 69.66 170.98 70 172 C60.54 175.01 51.54 176.87 41.62 177.75 C40.97 177.81 40.31 177.87 39.64 177.93 C12.76 180.37 -14.69 180.11 -41.25 175.06 C-42.09 174.9 -42.93 174.75 -43.8 174.58 C-44.57 174.42 -45.34 174.26 -46.14 174.1 C-46.82 173.96 -47.49 173.82 -48.19 173.68 C-50.36 172.86 -51.48 171.73 -53 170 C-47.84 167.56 -43.14 166.26 -37.5 165.44 C-37.1 165.38 -37.1 165.38 -35.07 165.07 C-24.77 163.57 -14.38 162.78 -4 162 C-4.27 161.72 -4.27 161.72 -5.65 160.3 C-26.52 138.12 -35.08 112.5 -34.31 82.37 C-33.49 62.32 -26.24 44.26 -16.91 26.72 C-16.09 25.18 -15.3 23.62 -14.51 22.05 C-11.65 16.52 -8.33 11.4 -4.75 6.31 C-4.31 5.69 -3.88 5.06 -3.43 4.42 C-2.34 2.91 -1.17 1.45 0 0 Z " fill="#0859B4" transform="translate(602,289)"/>
<path d="M0 0 C1.75 2.63 2.51 4.27 3.38 7.22 C8.75 24.74 16.44 40.01 27 55 C49.6 87.36 68.1 120.02 61.27 161.09 C59.58 169.42 56.71 177.36 53 185 C52.72 185.58 52.44 186.16 52.16 186.76 C41.71 208.25 25.15 226.16 5 239 C4.34 239 3.68 239 3 239 C4.15 235.91 5.5 232.96 6.99 230.02 C20.19 203.79 24.06 177.27 14.75 149.1 C10.15 136.65 3.05 125.71 -5.12 115.31 C-18.86 97.84 -25.65 80.34 -24 58 C-21.36 38.26 -10.9 16.34 0 0 Z " fill="#FD7414" transform="translate(642,204)"/>
<path d="M0 0 C0.46 0.17 0.46 0.17 2.8 1.03 C39.95 14.58 93.45 15.52 131 2 C132.34 1.34 133.67 0.68 135 0 C135.13 7.58 135.21 15.16 135.27 22.74 C135.3 25.32 135.33 27.9 135.38 30.48 C135.44 34.18 135.47 37.89 135.49 41.6 C135.51 42.75 135.54 43.9 135.57 45.09 C135.57 54.03 135.57 54.03 132.61 57.68 C113.08 75.03 75.35 72.07 51 71 C12.42 68.41 12.42 68.41 1.91 56.67 C-1.2 51.87 -0.49 46.33 -0.39 40.82 C-0.38 39.65 -0.38 38.48 -0.37 37.28 C-0.35 33.56 -0.3 29.84 -0.25 26.12 C-0.23 23.6 -0.21 21.07 -0.2 18.55 C-0.15 12.36 -0.08 6.18 0 0 Z " fill="#083B88" transform="translate(543,463)"/>
<path d="M0 0 C0.54 0 0.54 0 3.27 0.02 C6.72 0.04 10.16 0.09 13.61 0.14 C15.94 0.16 18.28 0.18 20.62 0.2 C26.34 0.24 32.07 0.31 37.79 0.39 C37.79 0.72 37.79 1.05 37.79 1.39 C22.94 1.72 8.09 2.05 -7.21 2.39 C-5.89 4.04 -4.57 5.69 -3.21 7.39 C-2.33 9.31 -2.33 9.31 -1.79 11.14 C-1.69 11.49 -1.69 11.49 -1.18 13.24 C-1.08 13.59 -1.08 13.59 -0.58 15.39 C-0.48 15.73 -0.48 15.73 0.04 17.45 C3.66 30.13 4.11 42.67 4.05 55.75 C4.04 58.56 4.05 61.36 4.07 64.16 C4.08 78.51 3.97 93.39 -0.58 107.14 C-0.78 107.77 -0.78 107.77 -1.79 110.94 C-3.21 114.39 -3.21 114.39 -7.21 120.39 C7.64 120.72 22.49 121.05 37.79 121.39 C37.79 121.72 37.79 122.05 37.79 122.39 C30.91 122.49 24.02 122.56 17.13 122.61 C14.79 122.63 12.45 122.66 10.11 122.69 C6.74 122.74 3.37 122.76 0 122.78 C-1.05 122.8 -2.09 122.82 -3.17 122.84 C-10.46 122.85 -10.46 122.85 -14.32 120.5 C-23.6 110.15 -24.27 95.52 -25.21 82.39 C-39.07 82.39 -52.93 82.39 -67.21 82.39 C-67.21 68.86 -67.21 55.33 -67.21 41.39 C-53.35 41.39 -39.49 41.39 -25.21 41.39 C-25.21 38.09 -25.21 34.79 -25.21 31.39 C-24.74 28.47 -24.23 25.74 -23.52 22.89 C-23.34 22.16 -23.16 21.43 -22.98 20.68 C-19.38 6.73 -15.05 -0.3 0 0 Z " fill="#135FB6" transform="translate(762.20703125,859.609375)"/>
<path d="M0 0 C0.46 0.17 0.46 0.17 2.8 1.03 C29.02 10.59 57.36 10.48 85 10 C77.49 15.01 67.02 12 58 12 C58 31.14 58 50.28 58 70 C66.91 70 75.82 70 85 70 C85 70.33 85 70.66 85 71 C19.63 72.13 19.63 72.13 4 59 C-0.99 53.42 -0.52 48.05 -0.39 40.82 C-0.38 39.65 -0.38 38.48 -0.37 37.28 C-0.35 33.56 -0.3 29.84 -0.25 26.12 C-0.23 23.6 -0.21 21.07 -0.2 18.55 C-0.15 12.36 -0.08 6.18 0 0 Z " fill="#0A5AB4" transform="translate(543,463)"/>
<path d="M0 0 C2.05 5.14 1.18 11.51 1.19 16.94 C1.2 18.12 1.21 19.3 1.22 20.51 C1.23 21.65 1.23 22.79 1.23 23.96 C1.23 25 1.24 26.04 1.24 27.11 C0.89 31.26 -0.04 34.04 -3 37 C-3.99 37 -4.98 37 -6 37 C-5.78 38.07 -5.57 39.15 -5.34 40.25 C-5.06 41.69 -4.78 43.13 -4.5 44.56 C-4.36 45.27 -4.21 45.97 -4.07 46.7 C-3.19 51.22 -2.85 55.39 -3 60 C-11.1 52.56 -11.03 48.66 -12 37 C-27.84 37 -43.68 37 -60 37 C-60 34.36 -60 31.72 -60 29 C-59.34 29 -58.68 29 -58 29 C-58 23.06 -58 17.12 -58 11 C-40.18 11 -22.36 11 -4 11 C-4 9.35 -4 7.7 -4 6 C-4.66 6 -5.32 6 -6 6 C-6 4.02 -6 2.04 -6 0 C-3 -1 -3 -1 0 0 Z " fill="#0A3D89" transform="translate(755,905)"/>
<path d="M0 0 C7.23 -0.27 7.23 -0.27 10.75 1.91 C11.06 2.28 11.06 2.28 12.62 4.16 C13.26 4.91 13.9 5.65 14.57 6.41 C15.02 6.99 15.47 7.57 15.93 8.16 C17.22 7.21 18.51 6.25 19.8 5.29 C20.52 4.75 21.24 4.22 21.98 3.67 C23.93 2.16 23.93 2.16 25.93 0.16 C29.68 -0.31 33.47 -0.17 37.24 -0.15 C37.8 -0.15 37.8 -0.15 40.62 -0.14 C48.03 -0.04 55.28 0.45 62.62 1.48 C63.04 1.53 63.04 1.53 65.2 1.83 C69.94 2.58 73.72 3.73 77.93 6.16 C77.93 6.82 77.93 7.48 77.93 8.16 C68.47 11.17 59.47 13.04 49.55 13.91 C48.9 13.97 48.24 14.03 47.57 14.1 C20.69 16.54 -6.76 16.28 -33.32 11.23 C-34.16 11.07 -35 10.91 -35.87 10.75 C-36.64 10.59 -37.41 10.43 -38.21 10.26 C-38.89 10.12 -39.56 9.98 -40.26 9.84 C-42.43 9.03 -43.55 7.89 -45.07 6.16 C-35.58 1.62 -26.05 0.84 -15.63 0.54 C-14.58 0.5 -13.52 0.46 -12.44 0.42 C-10.34 0.35 -8.24 0.29 -6.14 0.24 C-4.09 0.19 -2.05 0.11 0 0 Z " fill="#144993" transform="translate(594.070068359375,452.8369140625)"/>
<path d="M0 0 C1.86 0.18 1.86 0.18 4 1 C5.23 3.26 5.23 3.26 6.19 6.12 C6.51 7.06 6.83 7.99 7.17 8.95 C8.77 14.83 9.17 20.77 9.43 26.83 C9.5 28.3 9.58 29.78 9.65 31.25 C9.77 33.54 9.88 35.84 9.97 38.13 C10.07 40.37 10.19 42.6 10.3 44.83 C10.32 45.18 10.32 45.18 10.38 46.92 C10.49 48.85 10.49 48.85 11 52 C11.99 52.66 12.98 53.32 14 54 C14.18 56.77 14.18 59.25 14 62 C13.96 62.69 13.92 63.37 13.88 64.08 C12.94 77.67 10.66 90.51 3 102 C17.85 102.33 32.7 102.66 48 103 C48 103.33 48 103.66 48 104 C41.11 104.1 34.23 104.17 27.34 104.22 C25 104.24 22.65 104.27 20.31 104.3 C16.94 104.35 13.58 104.37 10.21 104.39 C9.16 104.41 8.12 104.43 7.04 104.45 C-0.25 104.46 -0.25 104.46 -4.11 102.11 C-13.3 91.85 -14.44 77.12 -15 64 C-13.02 64 -11.04 64 -9 64 C-7.65 66.69 -7.59 69.2 -7.25 72.19 C-6.39 78.19 -4.99 81.49 -1 86 C-1.07 85.39 -1.07 85.39 -1.44 82.31 C-2.12 76.22 -2.56 70.11 -3 64 C-2.2 63.59 -1.39 63.17 -0.56 62.75 C2 61 2 61 2.65 59.26 C3.43 54.28 3.23 49.21 3.25 44.19 C3.27 43.02 3.29 41.86 3.31 40.66 C3.34 34.4 3.31 29.42 0 24 C-0.99 23.67 -1.98 23.34 -3 23 C-2.57 15.13 -1.98 7.64 0 0 Z " fill="#1A65B8" transform="translate(752,878)"/>
<path d="M0 0 C1.86 0.18 1.86 0.18 4 1 C5.23 3.26 5.23 3.26 6.19 6.12 C6.51 7.06 6.83 7.99 7.17 8.95 C9.33 16.89 9.19 24.91 9.19 33.08 C9.19 35.3 9.21 37.51 9.22 39.73 C9.3 59.38 9.3 59.38 4 68 C3.67 68.16 3.67 68.16 2 69 C1.06 65.88 0.91 64.26 1.96 61.13 C3.64 55.55 3.33 49.78 3.31 44 C3.33 42.85 3.34 41.7 3.36 40.52 C3.36 34.31 3.26 29.38 0 24 C-0.99 23.67 -1.98 23.34 -3 23 C-2.57 15.13 -1.98 7.64 0 0 Z " fill="#67A3E3" transform="translate(752,878)"/>
<path d="M0 0 C0.68 -0 1.37 -0 2.07 -0 C3.52 -0 4.97 -0 6.42 0 C8.65 0.01 10.87 0 13.1 -0 C14.5 -0 15.91 -0 17.31 0 C18.6 0 19.89 0 21.21 0 C24.16 0.13 24.16 0.13 25.16 1.13 C25.28 3.63 25.28 3.63 25.16 6.13 C23.25 8.04 19.84 7.26 17.31 7.27 C16.63 7.27 15.94 7.27 15.24 7.27 C13.79 7.27 12.34 7.27 10.89 7.26 C8.67 7.26 6.44 7.26 4.21 7.27 C2.81 7.27 1.4 7.27 0 7.27 C-1.29 7.26 -2.57 7.26 -3.9 7.26 C-6.84 7.13 -6.84 7.13 -7.84 6.13 C-7.97 3.63 -7.97 3.63 -7.84 1.13 C-5.94 -0.78 -2.53 0 0 0 Z " fill="#679FDE" transform="translate(780.84375,932.8671875)"/>
<path d="M0 0 C1.25 0.01 2.49 0.02 3.78 0.03 C4.11 0.03 4.11 0.03 5.79 0.04 C7.91 0.05 10.02 0.08 12.14 0.1 C13.58 0.11 15.02 0.12 16.45 0.13 C19.97 0.15 23.5 0.19 27.02 0.23 C27.4 2.22 27.73 4.22 28.02 6.23 C27.02 7.23 27.02 7.23 24.06 7.34 C22.77 7.34 21.47 7.33 20.14 7.32 C19.8 7.32 19.8 7.32 18.06 7.32 C15.86 7.31 13.66 7.3 11.46 7.29 C9.97 7.28 8.48 7.28 6.99 7.28 C3.33 7.26 -0.32 7.25 -3.98 7.23 C-4.61 4.85 -4.61 4.85 -4.98 2.23 C-2.98 0.23 -2.98 0.23 0 0 Z " fill="#669EDB" transform="translate(775.98095703125,947.77294921875)"/>
<path d="M0 0 C0.35 0 0.35 0 2.13 0 C4.27 -0 6.41 -0.02 8.55 -0.04 C9.91 -0.04 11.27 -0.04 12.62 -0.04 C13.86 -0.05 15.1 -0.05 16.38 -0.06 C19.35 0.19 19.35 0.19 21.35 2.19 C20.81 5.72 20.81 5.72 19.35 7.19 C17.14 7.29 14.93 7.32 12.72 7.32 C12.06 7.32 11.4 7.32 10.71 7.32 C9.31 7.32 7.91 7.32 6.51 7.32 C4.35 7.31 2.2 7.32 0.05 7.32 C-1.31 7.32 -2.67 7.32 -4.03 7.32 C-5.27 7.32 -6.52 7.32 -7.8 7.31 C-10.65 7.19 -10.65 7.19 -11.65 6.19 C-11.78 3.69 -11.78 3.69 -11.65 1.19 C-9.22 -1.24 -3.4 0.01 0 0 Z " fill="#669EDC" transform="translate(785.654296875,916.814453125)"/>
<path d="M0 0 C6.13 6.98 7.5 12.8 7.31 21.81 C7.3 22.7 7.29 23.59 7.28 24.5 C7.11 32.91 6.51 40.67 2 48 C1.67 48.16 1.67 48.16 0 49 C-0.95 45.88 -1.09 44.26 -0.04 41.12 C1.64 35.58 1.29 29.86 1.25 24.12 C1.26 22.99 1.27 21.86 1.27 20.69 C1.26 14.12 0.54 8.38 -1 2 C-0.67 1.34 -0.34 0.68 0 0 Z " fill="#E1E9F3" transform="translate(754,898)"/>
<path d="M0 0 C1.29 0.01 2.59 0.01 3.92 0.02 C4.26 0.02 4.26 0.02 6 0.02 C8.2 0.03 10.4 0.04 12.6 0.05 C14.09 0.06 15.58 0.06 17.07 0.06 C20.73 0.08 24.38 0.09 28.04 0.11 C28.42 1.77 28.75 3.44 29.04 5.11 C28.04 6.11 28.04 6.11 25.08 6.23 C23.79 6.22 22.49 6.22 21.16 6.21 C20.82 6.21 20.82 6.21 19.08 6.21 C16.88 6.2 14.68 6.19 12.48 6.18 C10.99 6.17 9.5 6.17 8.01 6.16 C4.35 6.15 0.7 6.13 -2.96 6.11 C-3.34 4.46 -3.67 2.79 -3.96 1.11 C-2.96 0.11 -2.96 0.11 0 0 Z " fill="#70A8E4" transform="translate(776.959228515625,901.886474609375)"/>
<path d="M0 0 C1.25 0.01 2.49 0.02 3.78 0.03 C4.11 0.03 4.11 0.03 5.79 0.04 C7.91 0.05 10.02 0.08 12.14 0.1 C13.58 0.11 15.02 0.12 16.45 0.13 C19.97 0.15 23.5 0.19 27.02 0.23 C27.4 1.88 27.73 3.55 28.02 5.23 C27.02 6.23 27.02 6.23 24.15 6.34 C22.9 6.34 21.65 6.33 20.36 6.32 C20.03 6.32 20.03 6.32 18.35 6.32 C16.22 6.31 14.09 6.3 11.96 6.29 C10.52 6.28 9.08 6.28 7.63 6.28 C4.1 6.26 0.56 6.25 -2.98 6.23 C-3.64 4.91 -4.3 3.59 -4.98 2.23 C-2.98 0.23 -2.98 0.23 0 0 Z " fill="#619DDB" transform="translate(775.98095703125,886.77294921875)"/>
<path d="M0 0 C1.21 0.01 2.42 0.01 3.67 0.02 C4.97 0.02 6.28 0.02 7.62 0.03 C9.01 0.03 10.4 0.04 11.79 0.05 C13.18 0.06 14.57 0.06 15.96 0.06 C19.38 0.08 22.8 0.09 26.22 0.11 C26.61 1.77 26.94 3.44 27.22 5.11 C26.22 6.11 26.22 6.11 23.45 6.23 C22.24 6.22 21.03 6.22 19.78 6.21 C18.48 6.21 17.17 6.2 15.83 6.2 C14.44 6.19 13.05 6.18 11.66 6.18 C10.27 6.17 8.88 6.17 7.48 6.16 C4.06 6.15 0.64 6.13 -2.78 6.11 C-3.16 4.46 -3.49 2.79 -3.78 1.11 C-2.78 0.11 -2.78 0.11 0 0 Z " fill="#6CA3E1" transform="translate(772.775634765625,961.886474609375)"/>
<path d="M0 0 C9.57 0 19.14 0 29 0 C29.33 1.32 29.66 2.64 30 4 C27.28 6.72 25.77 6.26 21.97 6.27 C20.77 6.27 19.56 6.27 18.32 6.27 C17.06 6.27 15.8 6.26 14.5 6.25 C13.24 6.26 11.98 6.27 10.68 6.27 C9.47 6.27 8.27 6.27 7.03 6.27 C5.92 6.26 4.82 6.26 3.67 6.26 C1 6 1 6 -1 4 C-0.67 2.68 -0.34 1.36 0 0 Z " fill="#67A1DE" transform="translate(770,873)"/>
<path d="M0 0 C0.33 0 0.66 0 1 0 C1.64 11.4 0.74 23.81 -5 34 C-5.66 34 -6.32 34 -7 34 C-9.87 26.65 -10.65 19.86 -11 12 C-9.35 11.34 -7.7 10.68 -6 10 C-6 11.65 -6 13.3 -6 15 C-5.34 15 -4.68 15 -4 15 C-1.55 9.88 -0.5 5.66 0 0 Z " fill="#69A3E2" transform="translate(760,930)"/>
<path d="M0 0 C1.15 0.5 1.15 0.5 7 3 C6.01 3.66 5.02 4.32 4 5 C3.65 7.13 3.65 7.13 3.69 9.79 C3.7 10.78 3.7 11.77 3.71 12.8 C3.73 13.88 3.75 14.95 3.78 16.06 C3.78 16.61 3.78 16.61 3.8 19.4 C3.83 22.94 3.88 26.47 3.94 30 C3.99 33.53 4.03 37.06 4.06 40.6 C4.08 42.8 4.11 45 4.15 47.2 C4.16 48.2 4.17 49.19 4.18 50.21 C4.19 51.09 4.21 51.97 4.22 52.87 C4 55 4 55 2 57 C0.09 53.77 -0.24 51.41 -0.23 47.68 C-0.23 46.62 -0.23 45.56 -0.23 44.47 C-0.22 43.33 -0.21 42.19 -0.2 41.02 C-0.19 39.84 -0.19 38.67 -0.19 37.47 C-0.18 33.73 -0.15 29.99 -0.12 26.25 C-0.11 23.71 -0.11 21.18 -0.1 18.64 C-0.08 12.43 -0.04 6.21 0 0 Z " fill="#2164B6" transform="translate(543,463)"/>
<path d="M0 0 C-0.33 0.66 -0.66 1.32 -1 2 C-1.36 4 -1.69 6 -2 8 C-9.38 8.38 -16.16 8.07 -23 5 C-23.33 4.34 -23.66 3.68 -24 3 C-16.98 -0.75 -7.73 -2.48 0 0 Z " fill="#0B3A81" transform="translate(573,456)"/>
<path d="M0 0 C0.33 0 0.66 0 1 0 C0.45 6.79 -0.57 13.34 -2 20 C-2.34 21.67 -2.67 23.33 -3 25 C-2.34 25.33 -1.68 25.66 -1 26 C-1.99 26 -2.98 26 -4 26 C-4 25.34 -4 24.68 -4 24 C-4.99 24 -5.98 24 -7 24 C-7.7 14.91 -5.94 7.12 0 0 Z " fill="#043A83" transform="translate(751,877)"/>
<path d="M0 0 C0.05 7.65 0.09 15.31 0.11 22.96 C0.12 25.57 0.13 28.17 0.15 30.78 C0.18 34.52 0.19 38.25 0.2 41.99 C0.21 43.16 0.22 44.33 0.23 45.54 C0.23 46.62 0.23 47.7 0.23 48.82 C0.23 49.77 0.24 50.73 0.24 51.71 C0 54 0 54 -2 56 C-2.16 55.17 -2.16 55.17 -3 51 C-2.67 51 -2.34 51 -2 51 C-2 37.8 -2 24.6 -2 11 C-2.33 11 -2.66 11 -3 11 C-3 8.69 -3 6.38 -3 4 C-5.31 4.33 -7.62 4.66 -10 5 C-2.5 0 -2.5 0 0 0 Z " fill="#315D9B" transform="translate(678,463)"/>
<path d="M0 0 C2.41 3.06 4.36 6.22 6.25 9.62 C6.79 10.59 7.33 11.55 7.89 12.54 C8.26 13.35 8.62 14.16 9 15 C8.67 15.66 8.34 16.32 8 17 C3.38 13.37 -1.24 9.74 -6 6 C-5.01 5.67 -4.02 5.34 -3 5 C-2.34 5.33 -1.68 5.66 -1 6 C-1.16 5.18 -1.16 5.18 -2 1 C-1.34 0.67 -0.68 0.34 0 0 Z " fill="#FD9142" transform="translate(566,426)"/>
<path d="M0 0 C0.66 0.33 1.32 0.66 2 1 C3.73 6.56 4.25 12.21 4 18 C-2.95 11.23 -2.95 11.23 -3.12 6.81 C-3.08 5.88 -3.04 4.96 -3 4 C-2.67 4.16 -2.67 4.16 -1 5 C-0.67 3.35 -0.34 1.7 0 0 Z " fill="#063880" transform="translate(748,947)"/>
<path d="M0 0 C0.66 0.33 1.32 0.66 2 1 C2.49 6.9 1.31 11.04 -2 16 C-2.66 16.33 -3.32 16.66 -4 17 C-5.04 13.11 -4.91 10.64 -3.69 6.81 C-3.42 5.95 -3.16 5.09 -2.89 4.21 C-2 2 -2 2 0 0 Z " fill="#F2F6FB" transform="translate(758,930)"/>
<path d="M0 0 C0.99 0.33 1.98 0.66 3 1 C3.33 1.99 3.66 2.98 4 4 C-5.57 4 -15.14 4 -25 4 C-25 3.67 -25 3.34 -25 3 C-19.72 3 -14.44 3 -9 3 C-9 2.34 -9 1.68 -9 1 C-6.01 -0.49 -3.3 -0.12 0 0 Z " fill="#6BA6E1" transform="translate(799,888)"/>
<path d="M0 0 C0.66 0.33 1.32 0.66 2 1 C2 6.1 0.36 7.32 -3 11 C-3.66 11.66 -4.32 12.32 -5 13 C-4.01 13 -3.02 13 -2 13 C-2.33 13.99 -2.66 14.98 -3 16 C-3.99 15.34 -4.98 14.68 -6 14 C-6.63 10.42 -6.72 8.07 -4.65 4.98 C-3.16 3.25 -1.63 1.6 0 0 Z " fill="#2B6BB7" transform="translate(529,972)"/>
<path d="M0 0 C0.66 1.32 1.32 2.64 2 4 C2.99 3.01 3.98 2.02 5 1 C6.35 3.71 6.07 6.01 6 9 C5.01 9 4.02 9 3 9 C2.67 9.66 2.34 10.32 2 11 C2.66 11 3.32 11 4 11 C3.67 12.98 3.34 14.96 3 17 C3.66 17.33 4.32 17.66 5 18 C4.34 19.32 3.68 20.64 3 22 C2.49 19.65 1.99 17.29 1.5 14.94 C1.43 14.61 1.43 14.61 1.07 12.95 C0.16 8.57 -0.14 4.5 0 0 Z " fill="#3A7DC7" transform="translate(737,942)"/>
<path d="M0 0 C0.56 1.94 0.56 1.94 1 4 C0 5 0 5 -2.96 5.11 C-4.25 5.11 -5.55 5.1 -6.88 5.1 C-7.22 5.1 -7.22 5.1 -8.96 5.09 C-11.16 5.09 -13.36 5.08 -15.56 5.06 C-17.05 5.06 -18.54 5.05 -20.03 5.05 C-23.69 5.04 -27.34 5.02 -31 5 C-31 4.67 -31 4.34 -31 4 C-23.08 3.67 -15.16 3.34 -7 3 C-6.67 2.34 -6.34 1.68 -6 1 C-2.94 0.38 -2.94 0.38 0 0 Z " fill="#619BDA" transform="translate(805,903)"/>
<path d="M0 0 C0.33 0 0.66 0 1 0 C0.42 6.01 -0.22 12.01 -1 18 C-1.33 18 -1.66 18 -2 18 C-2 16.02 -2 14.04 -2 12 C-3.32 12 -4.64 12 -6 12 C-4.68 7.39 -2.85 3.86 0 0 Z " fill="#0B458E" transform="translate(751,877)"/>
<path d="M0 0 C0.33 0 0.66 0 1 0 C1 12.21 1 24.42 1 37 C0.67 37 0.34 37 0 37 C0 26.11 0 15.22 0 4 C-1.98 4.33 -3.96 4.66 -6 5 C-5.2 4.36 -4.39 3.72 -3.56 3.06 C-1 1 -1 1 0 0 Z " fill="#1D4E92" transform="translate(676,816)"/>
<path d="M0 0 C0.33 0 0.66 0 1 0 C2.14 6.43 1.37 10.99 -0.38 17.19 C-0.49 17.62 -0.49 17.62 -1.09 19.79 C-2 22 -2 22 -5 24 C-4.72 22.77 -4.45 21.54 -4.16 20.27 C-3.79 18.64 -3.43 17.01 -3.06 15.38 C-2.88 14.57 -2.7 13.76 -2.51 12.93 C-1.55 8.63 -0.67 4.35 0 0 Z " fill="#FB9142" transform="translate(662,394)"/>
<path d="M0 0 C-0.66 0.66 -1.32 1.32 -2 2 C-1.62 4.12 -1.62 4.12 -1 6 C-7.52 5.38 -7.52 5.38 -9.94 3.44 C-10.29 2.96 -10.64 2.49 -11 2 C-3.57 -1.57 -3.57 -1.57 0 0 Z " fill="#3B619F" transform="translate(560,457)"/>
<path d="M0 0 C0.33 0.99 0.66 1.98 1 3 C3.06 3.69 3.06 3.69 5 4 C1.87 7.39 -0.57 9.61 -5 11 C-3.55 7.21 -1.85 3.61 0 0 Z " fill="#FC9446" transform="translate(650,432)"/>
<path d="M0 0 C0.99 0 1.98 0 3 0 C3.33 2.64 3.66 5.28 4 8 C3.67 8 3.34 8 3 8 C2.67 12.29 2.34 16.58 2 21 C1.67 21 1.34 21 1 21 C0.84 17.53 0.84 17.53 0 0 Z " fill="#FAFBFD" transform="translate(756,908)"/>
</svg>
