<?xml version="1.0" encoding="UTF-8"?>
<!-- Generator: visioncortex VTracer 0.6.5 -->
<svg version="1.1" xmlns="http://www.w3.org/2000/svg" width="1254" height="1254">
<path d="M0 0 C1.96 0.69 3.92 1.36 5.88 2.04 C11.41 3.96 16.77 5.9 21.95 8.64 C24.49 9.95 27.08 11.12 29.69 12.29 C79.78 34.89 123.03 65.76 161.87 104.45 C162.76 105.33 163.65 106.22 164.57 107.14 C169.58 112.16 174.38 117.3 178.99 122.7 C179.93 123.76 180.87 124.82 181.81 125.87 C246.49 199.37 284.99 300.01 286.99 397.7 C287.01 398.77 287.03 399.83 287.06 400.94 C287.92 451.72 281.15 501.5 264.99 549.7 C264.81 550.24 264.81 550.24 263.9 552.97 C251.52 589.7 234.33 625.93 211.99 657.7 C211.09 659.01 210.2 660.31 209.3 661.62 C202.77 671.08 195.81 680.08 188.46 688.92 C187.12 690.55 185.78 692.18 184.45 693.83 C179.78 699.59 174.97 705.2 169.99 710.7 C171.1 710.78 172.21 710.87 173.36 710.96 C183.55 711.87 191.6 713.29 199.74 719.95 C206.72 728.48 209.79 734.61 208.99 745.7 C208.22 750.41 207.18 755.05 206.12 759.7 C205.58 762.11 205.04 764.53 204.5 766.95 C204.24 768.1 203.98 769.25 203.71 770.44 C202.9 774.09 202.17 777.75 201.45 781.42 C200.85 784.37 200.18 787.29 199.49 790.21 C197.72 797.86 196.38 805.36 195.58 813.17 C195.12 815.91 194.58 817.95 193.64 820.51 C192.08 824.97 191.19 829.46 190.34 834.1 C190.2 834.87 190.06 835.63 189.91 836.43 C189.33 839.63 188.75 842.84 188.19 846.06 C185.89 859.19 183.32 871.64 171.8 879.82 C164.34 884.95 156.62 886.17 147.75 885.97 C146.76 885.96 145.78 885.95 144.76 885.94 C131.78 885.74 118.82 884.99 105.87 884.26 C103.33 884.12 100.8 883.99 98.27 883.85 C95.82 883.72 93.37 883.59 90.92 883.45 C89.81 883.39 88.7 883.33 87.56 883.27 C82.14 882.96 76.73 882.61 71.32 882.18 C65.8 881.75 60.27 881.43 54.73 881.2 C53.8 881.16 52.87 881.12 51.91 881.08 C48.9 880.95 45.88 880.82 42.87 880.7 C41.82 880.65 40.78 880.61 39.71 880.57 C21.95 879.83 4.19 879.31 -13.58 879 C-14.49 878.98 -15.4 878.96 -16.34 878.94 C-17.02 878.93 -17.69 878.92 -18.39 878.9 C-23.25 878.79 -28.1 878.6 -32.95 878.33 C-43.97 877.71 -54.95 877.54 -65.98 877.52 C-67.89 877.51 -69.81 877.51 -71.72 877.5 C-76.88 877.48 -82.04 877.47 -87.2 877.46 C-90.47 877.46 -93.74 877.45 -97 877.44 C-112.23 877.41 -127.46 877.39 -142.68 877.39 C-146.32 877.38 -149.96 877.38 -153.6 877.38 C-268.98 877.3 -268.98 877.3 -324.51 879.57 C-325.58 879.62 -326.66 879.66 -327.76 879.7 C-340.7 880.24 -353.62 880.86 -366.55 881.56 C-369.05 881.7 -371.55 881.83 -374.05 881.97 C-388.66 882.75 -403.27 883.59 -417.88 884.46 C-441.64 885.88 -441.64 885.88 -452.7 886.01 C-453.07 886.02 -453.07 886.02 -454.94 886.06 C-464.73 886.05 -471.87 882.15 -479.01 875.7 C-481.26 873.38 -481.26 873.38 -483.01 870.7 C-483.21 870.39 -483.21 870.39 -484.25 868.83 C-487.74 862.88 -488.79 856.91 -489.71 850.18 C-490.85 842.12 -492.55 834.2 -494.32 826.26 C-494.63 824.88 -494.93 823.51 -495.24 822.13 C-495.7 820.05 -496.17 817.97 -496.63 815.89 C-498.24 808.71 -499.78 801.52 -501.32 794.32 C-501.56 793.19 -501.81 792.07 -502.06 790.91 C-503.07 786.16 -504.07 781.41 -505.01 776.64 C-505.72 773.07 -506.49 769.52 -507.3 765.96 C-513.89 736.61 -513.89 736.61 -507.69 725.95 C-502.66 719.21 -496.26 713.92 -487.86 712.28 C-485.6 711.97 -483.34 711.72 -481.07 711.51 C-480.29 711.43 -479.51 711.35 -478.71 711.26 C-476.81 711.06 -474.91 710.88 -473.01 710.7 C-473.63 710.03 -474.24 709.36 -474.88 708.68 C-480.83 702.2 -486.52 695.58 -492.01 688.7 C-492.43 688.18 -492.85 687.66 -493.28 687.12 C-544.27 623.86 -576.01 546.88 -586.76 466.51 C-586.82 466.08 -586.82 466.08 -587.11 463.91 C-589.19 447.29 -589.23 430.64 -589.25 413.91 C-589.26 409.93 -589.29 405.95 -589.32 401.97 C-589.39 385.01 -588.34 368.5 -586.01 351.7 C-585.91 350.94 -585.8 350.18 -585.7 349.4 C-585.15 345.42 -584.52 341.46 -583.82 337.51 C-583.72 336.92 -583.72 336.92 -583.19 333.93 C-568.08 251.61 -529.39 174.48 -472.41 113.22 C-470.99 111.67 -469.58 110.11 -468.18 108.55 C-460.56 100.1 -452.42 92.35 -444.01 84.7 C-443.08 83.84 -442.15 82.98 -441.19 82.1 C-435.65 77.04 -429.95 72.28 -424.01 67.7 C-423.34 67.18 -422.68 66.66 -421.99 66.13 C-403.1 51.51 -383.29 38.53 -362.37 27 C-360.23 25.82 -358.1 24.62 -355.97 23.41 C-321.72 4.32 -283.29 -8.36 -245.13 -16.82 C-243.02 -17.3 -240.92 -17.83 -238.82 -18.37 C-235.49 -19.18 -232.28 -19.79 -228.88 -20.24 C-227.67 -20.4 -226.46 -20.57 -225.21 -20.74 C-224.55 -20.83 -223.88 -20.91 -223.19 -21.01 C-220.81 -21.33 -218.43 -21.68 -216.06 -22.03 C-210.38 -22.85 -204.7 -23.59 -199.01 -24.3 C-198.16 -24.41 -197.31 -24.52 -196.43 -24.63 C-130.1 -32.72 -62.58 -22 0 0 Z " fill="#081C2B" transform="translate(779.009765625,138.3028564453125)"/>
<path d="M0 0 C0.63 0.2 1.25 0.39 1.89 0.59 C51.44 16.14 97.46 39.54 138.19 71.88 C139.12 72.61 140.05 73.35 141.02 74.11 C147.47 79.31 153.6 84.82 159.66 90.46 C161.2 91.88 162.74 93.29 164.3 94.7 C172.36 102.02 180.23 109.45 187.32 117.73 C189.48 120.21 191.71 122.6 193.94 125 C209.69 142.32 223.1 161.87 235.19 181.88 C235.67 182.67 236.15 183.47 236.65 184.29 C268.7 237.61 286.71 297.19 293.19 358.88 C293.24 359.33 293.24 359.33 293.48 361.61 C294.55 373.17 294.43 384.78 294.44 396.38 C294.44 397.51 294.44 398.65 294.44 399.82 C294.43 417.39 293.76 434.48 291.19 451.88 C291.04 452.96 290.89 454.05 290.73 455.17 C288.94 468.12 286.5 480.68 282.9 493.24 C282.17 495.93 281.53 498.62 280.89 501.32 C278.61 510.85 275.56 519.99 272.19 529.19 C271.91 529.96 271.62 530.74 271.33 531.54 C257.35 569.87 238.93 606.33 214.19 638.88 C213.71 639.5 213.24 640.13 212.75 640.77 C205.9 649.76 198.62 658.37 191.19 666.88 C190.45 667.72 189.72 668.57 188.96 669.45 C186.74 671.96 184.47 674.42 182.19 676.88 C181.64 677.5 181.09 678.12 180.52 678.76 C178.65 680.87 176.73 682.93 174.81 685 C174.52 685.34 174.52 685.34 173.03 687.05 C170.61 689.6 168.6 691.67 165.02 692.19 C164.21 692.17 163.4 692.14 162.57 692.11 C161.59 692.09 160.62 692.06 159.61 692.03 C159.05 692.01 159.05 692.01 156.19 691.88 C154.87 691.82 153.55 691.76 152.19 691.71 C147.48 691.5 142.76 691.25 138.05 691 C136.32 690.91 134.58 690.82 132.85 690.73 C128.33 690.5 123.8 690.26 119.27 690.02 C114.64 689.78 110.01 689.54 105.38 689.3 C96.31 688.83 87.25 688.35 78.19 687.88 C78.1 687.08 78.02 686.29 77.94 685.47 C77.56 681.82 77.17 678.17 76.79 674.53 C76.72 673.9 76.72 673.9 76.39 670.75 C75.4 661.41 74.11 652.16 72.53 642.9 C71.99 639.67 71.49 636.43 71 633.19 C70.92 632.67 70.92 632.67 70.52 630.05 C70.41 629.33 70.3 628.61 70.19 627.88 C70.45 627.76 70.45 627.76 71.77 627.19 C93.78 617.63 112.86 606.41 131.19 590.88 C131.92 590.27 132.65 589.66 133.4 589.04 C137.42 585.63 140.96 582.04 144.36 578.01 C145.6 576.55 146.89 575.13 148.2 573.74 C165.01 555.91 176.24 534.05 186.19 511.88 C186.33 511.56 186.33 511.56 187.06 509.95 C191.18 500.79 193.76 491.5 196.01 481.73 C197.27 476.46 198.41 472.93 202.19 468.88 C205.55 462.53 205.47 455.51 205.5 448.5 C205.51 447.62 205.51 446.74 205.52 445.83 C205.47 441.48 205.2 438.76 203.19 434.88 C203.52 430.87 205.09 427.92 207 424.44 C210.4 417.75 212.53 411.18 214.19 403.88 C214.34 403.22 214.49 402.57 214.65 401.9 C217.35 389.61 217.48 377.27 217.5 364.75 C217.5 364.35 217.5 364.35 217.51 362.3 C217.57 338.53 217.57 338.53 211.19 330.88 C208.47 328.43 206.66 327.03 203.19 325.88 C202.73 323.9 202.27 321.92 201.83 319.94 C200.79 316.59 198.92 315 196.19 312.88 C195.01 312.4 193.84 311.93 192.62 311.44 C188.5 309.56 187.6 307.61 185.19 303.88 C181.82 301.66 179.13 300.79 175.19 300.5 C170.52 300.08 168.6 297.99 165.19 294.88 C160.55 292.17 155.4 292.14 150.19 292.88 C141.62 295.77 136.9 300.55 132.56 308.38 C127.26 319.69 126.53 332.46 125.5 344.75 C125.37 346.23 125.24 347.71 125.11 349.18 C124.79 352.75 124.49 356.31 124.19 359.88 C123.5 359.86 122.82 359.84 122.12 359.82 C121.67 359.81 121.67 359.81 119.4 359.77 C118.51 359.75 117.62 359.74 116.7 359.72 C112.91 359.96 110.97 361.36 108.19 363.88 C103.19 370.5 102.48 375.77 103.19 383.88 C105.28 393.36 109.2 402.51 112.6 411.59 C112.87 412.33 113.14 413.06 113.42 413.82 C114.1 415.63 114.83 417.42 115.57 419.21 C116.19 421.88 116.19 421.88 115.18 423.86 C114.9 424.15 114.9 424.15 113.5 425.62 C108.36 431.84 107.16 437.94 107.19 445.88 C106.25 461.72 89.98 479.95 78.72 490.35 C77.19 491.88 77.19 491.88 75.5 494.33 C72.43 497.71 69.27 498.9 65.06 500.5 C64.35 500.79 63.64 501.07 62.91 501.37 C60.69 502.25 58.44 503.07 56.19 503.88 C55.45 504.16 54.71 504.45 53.95 504.74 C46.91 507.22 39.97 507.3 32.59 507.21 C30.52 507.19 28.46 507.19 26.39 507.2 C17.18 507.18 8.29 506.31 -0.81 504.88 C2.06 502.69 4.99 500.72 8.06 498.82 C20.99 490.76 31.91 481.29 37.62 466.75 C39.04 464 39.04 464 41.19 461.88 C44.85 461.06 48.21 460.75 51.94 460.58 C58 460.24 62.56 458.87 67.94 456.06 C68.58 455.73 69.22 455.4 69.88 455.06 C83.01 447.87 90.02 435.97 94.19 421.88 C100.89 396.38 101.92 363.87 88.21 340.37 C83.7 333.13 78.65 328 71.19 323.88 C70.36 323.39 69.53 322.91 68.67 322.42 C63.65 319.81 59.91 318.8 54.22 318.79 C50.6 318.72 47.44 318.6 44.19 316.88 C39.99 312.1 37.76 305.91 35.25 300.14 C33.03 295.41 29.72 291.67 26.19 287.88 C25.54 287.14 24.89 286.4 24.22 285.63 C17.55 278.44 8.98 272.27 0.19 267.88 C-0.04 262.47 -0.2 257.06 -0.31 251.65 C-0.35 249.81 -0.41 247.98 -0.49 246.14 C-1.13 230.79 -1.13 230.79 2.13 226.05 C4.54 224 4.54 224 6.95 222.51 C9.95 220.32 10.87 218.33 12.19 214.88 C12.71 210.56 12.66 206.28 12.63 201.93 C12.63 199.88 12.65 197.83 12.69 195.77 C12.68 194.47 12.68 193.16 12.68 191.81 C12.69 190.63 12.69 189.44 12.69 188.21 C11.63 181.18 6.6 176.94 1.19 172.88 C-3.94 169.39 -9.1 167.71 -15.04 166 C-17.16 165.37 -19.27 164.71 -21.34 163.94 C-29.81 160.86 -38.18 159.64 -47.06 158.62 C-48.5 158.45 -49.94 158.28 -51.38 158.1 C-54.86 157.68 -58.33 157.27 -61.81 156.88 C-61.45 155.83 -61.09 154.78 -60.72 153.7 C-51.7 125.3 -56.77 97.41 -70.04 71.39 C-81.06 50.3 -95.86 30.41 -114.81 15.88 C-115.28 15.51 -115.28 15.51 -117.64 13.68 C-123.1 9.55 -128.4 6.28 -134.81 3.88 C-134.6 4.6 -134.38 5.33 -134.16 6.08 C-129.76 21.97 -131.93 36.33 -139.78 50.76 C-142.72 55.9 -145.96 60.41 -149.81 64.88 C-150.47 64.22 -151.13 63.56 -151.81 62.88 C-152.17 63.43 -152.53 63.98 -152.9 64.54 C-155.98 69.21 -159.17 73.77 -162.51 78.25 C-171.42 90.27 -179.35 102.49 -183.81 116.88 C-184.17 117.77 -184.52 118.66 -184.89 119.59 C-186.1 123.91 -186.14 127.91 -186.12 132.38 C-186.13 132.78 -186.13 132.78 -186.17 134.83 C-186.18 142.41 -184.57 149.52 -182.81 156.88 C-183.67 157.02 -184.52 157.17 -185.4 157.31 C-214.23 162.28 -214.23 162.28 -227.25 166.38 C-228.1 166.63 -228.95 166.89 -229.82 167.16 C-238.85 170.16 -246.22 175.12 -251.81 182.88 C-254 187.24 -253.08 193.09 -253.11 197.94 C-253.12 200.1 -253.17 202.26 -253.21 204.43 C-253.22 205.81 -253.23 207.19 -253.24 208.58 C-253.25 209.83 -253.27 211.09 -253.28 212.38 C-252.72 216.56 -251.48 218.64 -248.81 221.88 C-247.45 222.81 -246.06 223.7 -244.64 224.54 C-240.85 227.75 -240.2 230.57 -239.72 235.32 C-239.52 238.76 -239.47 242.18 -239.49 245.63 C-239.5 248.31 -239.39 250.97 -239.28 253.65 C-239.11 263.35 -239.11 263.35 -240.81 267.88 C-244.74 271.9 -248.67 273.61 -253.81 275.88 C-265.99 284.41 -279.8 298.65 -283.51 313.69 C-284.81 315.88 -284.81 315.88 -288.52 316.84 C-290.08 317.04 -291.63 317.21 -293.19 317.38 C-306.9 319.25 -318.98 324.03 -328.29 334.72 C-344.53 356.66 -345.95 383.71 -342.3 409.87 C-339.7 426.11 -333.22 442.51 -319.6 452.5 C-310.69 458.28 -301.54 460.76 -291 461.31 C-286.48 461.83 -284.51 462.11 -281.4 465.5 C-279.39 468.89 -277.61 472.36 -275.81 475.88 C-264.44 492.6 -247.08 502.25 -228.81 509.88 C-228.81 510.53 -228.81 511.2 -228.81 511.88 C-230.78 513.3 -232.75 514.6 -234.81 515.88 C-235.38 516.24 -235.96 516.61 -236.54 517 C-241.88 520.42 -247.42 523.31 -253.06 526.19 C-261.03 530.31 -268.57 534.56 -275.81 539.88 C-276.07 540.07 -276.07 540.07 -277.4 541.04 C-285.71 547.18 -293.82 553.64 -300.96 561.13 C-302.81 562.88 -302.81 562.88 -304.81 562.88 C-305.05 563.44 -305.29 564 -305.54 564.58 C-307.08 567.36 -308.98 569.28 -311.19 571.56 C-341.25 603.75 -353.79 646.15 -358.81 688.88 C-364.5 689.57 -370.18 690.12 -375.9 690.59 C-378.73 690.87 -381.52 691.28 -384.34 691.71 C-391.29 692.53 -397.5 693.02 -403.58 689.08 C-410.07 683.7 -415.49 677.38 -420.81 670.88 C-421.75 669.78 -422.69 668.68 -423.64 667.59 C-425.05 665.91 -426.42 664.21 -427.77 662.48 C-429.78 659.92 -431.88 657.49 -434.03 655.05 C-441.6 646.44 -448.34 637.33 -454.81 627.88 C-455.43 626.98 -456.04 626.08 -456.67 625.16 C-490.1 575.86 -511.46 519.36 -521.81 460.88 C-521.89 460.44 -521.89 460.44 -522.29 458.22 C-528 425.75 -529.48 390.38 -525.17 357.62 C-524.76 354.45 -524.4 351.28 -524.04 348.11 C-516.61 285.61 -495.9 224.48 -461.09 171.81 C-459.99 170.15 -458.92 168.46 -457.85 166.78 C-448.12 151.64 -436.73 137.34 -424.81 123.88 C-423.98 122.93 -423.14 121.98 -422.28 121.01 C-416 114.01 -409.39 107.33 -402.77 100.66 C-401.77 99.65 -400.78 98.65 -399.79 97.64 C-393.14 90.91 -386.2 84.78 -378.81 78.88 C-377.7 77.93 -376.59 76.98 -375.49 76.01 C-367.04 68.63 -358.07 62.2 -348.81 55.88 C-348.18 55.44 -347.55 55 -346.9 54.55 C-320.78 36.49 -290.78 18.98 -260.32 9.66 C-257.81 8.87 -255.42 7.94 -253 6.94 C-241.52 2.25 -229.62 -1.17 -217.62 -4.25 C-216.96 -4.42 -216.29 -4.6 -215.6 -4.77 C-205.1 -7.47 -194.65 -9.47 -183.9 -10.83 C-180.73 -11.28 -177.63 -12 -174.5 -12.69 C-118.98 -23.74 -53.6 -16.77 0 0 Z " fill="#FDFDFD" transform="translate(743.8125,155.125)"/>
<path d="M0 0 C9 2 9 2 13.08 2.96 C40.55 9.43 68.46 11.36 96.63 11.26 C100.23 11.25 103.84 11.26 107.45 11.27 C129.5 11.29 151.46 10.04 173.31 7.06 C173.93 6.98 173.93 6.98 177.03 6.59 C188.53 5.07 199.74 2.82 211 0 C211 16.17 211 32.34 211 49 C212.65 49.33 214.3 49.66 216 50 C224.45 54.02 231.41 59.42 238 66 C238.7 66.69 239.4 67.37 240.12 68.08 C262.1 91.14 265.67 127.66 265.19 158.03 C264.39 188.5 260.31 221.63 238.37 244.76 C203.48 277.81 138 279.16 93.21 278.21 C70.24 277.58 47.37 275.33 25 270 C24.53 269.89 24.53 269.89 22.17 269.33 C4.14 264.95 -12.82 258.23 -27 246 C-27.33 245.73 -27.33 245.73 -29 244.34 C-48.34 226.8 -53.25 195.62 -55 171 C-56.31 143.41 -55.34 111.96 -42 87 C-41.56 86.1 -41.12 85.21 -40.67 84.29 C-32.46 68.16 -19.49 56.28 -3 49 C-2.01 49 -1.02 49 0 49 C0 32.83 0 16.66 0 0 Z " fill="#DEE9EF" transform="translate(518,386)"/>
<path d="M0 0 C10.28 1.6 18.35 9.45 26 16 C26.37 16.31 26.37 16.31 28.23 17.85 C32.98 21.87 37.04 26.2 41 31 C41.42 31.49 41.85 31.99 42.28 32.5 C67.65 62.21 81.09 94.8 79 134 C77.74 145.25 73.25 155.62 67 165 C67.57 165.06 68.13 165.12 68.71 165.18 C111.39 169.82 111.39 169.82 127 179 C128.08 179.62 129.15 180.23 130.26 180.87 C132.45 182.76 132.96 183.81 133.56 186.68 C133.77 190 133.77 193.24 133.69 196.56 C133.69 197.13 133.69 197.13 133.73 200.01 C133.65 208.23 133.65 208.23 130.79 211.62 C129.87 212.08 128.95 212.53 128 213 C127.15 213.44 126.29 213.89 125.41 214.34 C77.21 234.33 12.94 234.24 -38 228 C-38.55 227.93 -38.55 227.93 -41.35 227.59 C-89.57 221.52 -89.57 221.52 -102.56 209.96 C-105.5 205.97 -105.04 201.34 -104.94 196.56 C-104.97 195.55 -105.01 194.54 -105.04 193.5 C-105.02 189.29 -104.92 186.23 -102.34 182.8 C-98.8 179.57 -95.17 177.18 -90.56 175.75 C-90.14 175.61 -90.14 175.61 -88 174.92 C-87.01 174.62 -86.02 174.31 -85 174 C-84.67 173.88 -84.67 173.88 -82.99 173.3 C-77.49 171.39 -72.02 170 -66.31 168.88 C-65.45 168.7 -64.59 168.53 -63.7 168.35 C-56.47 166.97 -49.36 166.24 -42 166 C-42.47 165.06 -42.94 164.11 -43.43 163.14 C-51.51 146.64 -55.62 129.27 -50 111.19 C-44.7 97.49 -37.06 85.74 -28.41 73.93 C-27.12 72.16 -25.83 70.38 -24.56 68.59 C-19 60.83 -19 60.83 -16 58 C-15.67 58.66 -15.34 59.32 -15 60 C-4.52 45.99 3.83 29.99 2 12 C1.47 9.27 0.77 6.68 0 4 C0 2.68 0 1.36 0 0 Z " fill="#FB790A" transform="translate(609,159)"/>
<path d="M0 0 C3.03 1.37 5.25 3.01 7.75 5.19 C24.59 18.43 45.85 19.65 66.38 17.22 C66.91 17.15 67.45 17.07 68 17 C66.35 31.24 60.79 44.56 54.03 57.08 C53 59 52.01 60.93 51.03 62.87 C42.64 79.27 31.56 93.56 19 107 C18.24 107.81 17.48 108.63 16.7 109.46 C10.01 116.39 2.68 122.24 -5 128 C-5.82 128.63 -6.64 129.25 -7.48 129.9 C-19.13 138.45 -33.17 146.61 -47 151 C-50 150 -50 150 -50.96 148.31 C-51.24 147.57 -51.52 146.84 -51.8 146.08 C-52.13 145.25 -52.46 144.42 -52.8 143.56 C-53.16 142.65 -53.51 141.75 -53.88 140.81 C-58.74 128.82 -65.19 117.97 -72 107 C-71.87 107.54 -71.74 108.08 -71.61 108.63 C-70.25 114.33 -68.88 120.02 -67.52 125.72 C-67.01 127.83 -66.51 129.95 -66 132.06 C-64.78 137.16 -63.56 142.25 -62.35 147.35 C-61.53 150.81 -60.69 154.28 -59.84 157.73 C-57.56 167.11 -55.79 176.46 -54.31 186 C-54.1 187.34 -53.88 188.68 -53.67 190.02 C-51.96 200.83 -50.83 211.04 -51 222 C-81.66 222.21 -112.39 221.89 -143 220 C-140.32 215.08 -137.4 210.73 -133.88 206.38 C-132.89 205.14 -131.91 203.91 -130.93 202.67 C-130.43 202.06 -129.94 201.44 -129.44 200.81 C-121.88 191.3 -114.59 181.57 -107.35 171.81 C-106.13 170.18 -104.89 168.56 -103.65 166.94 C-103 166.07 -102.35 165.21 -101.69 164.31 C-101.13 163.59 -100.58 162.86 -100.01 162.11 C-99 160 -99 160 -99.07 157.56 C-100.24 154.34 -101.9 152.29 -104.12 149.69 C-104.93 148.73 -105.73 147.78 -106.56 146.79 C-109.27 143.69 -112.04 140.64 -114.88 137.66 C-115.25 137.11 -115.62 136.56 -116 136 C-115.67 135.01 -115.34 134.02 -115 133 C-113.33 132.19 -113.33 132.19 -111.17 131.57 C-110.37 131.33 -109.58 131.1 -108.76 130.86 C-108.34 130.74 -108.34 130.74 -106.19 130.12 C-97.85 127.64 -89.8 124.9 -82 121 C-81.55 114.95 -82.93 110.93 -85.5 105.5 C-85.86 104.71 -86.22 103.93 -86.6 103.12 C-87.71 100.74 -88.85 98.37 -90 96 C-90.33 95.32 -90.66 94.63 -91 93.93 C-97.54 80.64 -105.81 68.76 -116 58 C-115.67 57.34 -115.34 56.68 -115 56 C-113.85 56.16 -112.7 56.32 -111.52 56.49 C-107.23 57.02 -103 57.19 -98.69 57.24 C-98.3 57.24 -98.3 57.24 -96.35 57.26 C-94.72 57.28 -93.09 57.29 -91.47 57.3 C-89.84 57.31 -88.21 57.33 -86.58 57.36 C-72.09 57.62 -59.3 55.72 -45.92 49.73 C-44 49 -44 49 -41 49 C-40.53 49.9 -40.06 50.81 -39.57 51.74 C-38.95 52.93 -38.32 54.12 -37.69 55.31 C-37.53 55.61 -37.53 55.61 -36.75 57.12 C-35.14 60.15 -33.64 62.75 -31 65 C-31.16 64.46 -31.32 63.92 -31.49 63.36 C-32.09 60.6 -32.13 58.07 -32.12 55.25 C-32.13 54.76 -32.13 54.76 -32.13 52.27 C-32.09 51.19 -32.05 50.11 -32 49 C-31.99 48.35 -31.97 47.69 -31.96 47.02 C-31.67 42.42 -30.75 40.02 -27.2 36.79 C-26.68 36.35 -26.16 35.9 -25.62 35.44 C-14.72 25.3 -7.01 13.04 0 0 Z " fill="#FBFBFB" transform="translate(858,618)"/>
<path d="M0 0 C29.61 -1.06 29.61 -1.06 40.13 8.6 C45.44 14.66 47.38 20.93 47.21 28.93 C46.44 37.3 43.35 43.6 37.01 49.17 C35.68 49.84 34.34 50.51 33.01 51.17 C32.84 51.5 32.84 51.5 32.01 53.17 C32.74 53.1 33.47 53.04 34.22 52.98 C39.23 53.32 42.5 56.8 46.01 60.17 C51.61 67.39 52.01 76.37 51.01 85.17 C48.3 93.7 43.48 100.26 36.01 105.17 C28.92 108.77 22.12 111.06 14.17 111.56 C13.24 111.62 12.31 111.68 11.35 111.74 C10.36 111.8 9.36 111.86 8.33 111.92 C7.3 111.99 6.26 112.05 5.19 112.12 C3 112.25 0.81 112.39 -1.39 112.52 C-4.72 112.73 -8.05 112.94 -11.39 113.15 C-13.52 113.28 -15.66 113.41 -17.79 113.55 C-18.78 113.61 -19.77 113.67 -20.78 113.73 C-26.53 114.08 -32.24 114.32 -37.99 114.17 C-39.56 112.6 -39.12 111.09 -39.13 108.92 C-39.13 108.01 -39.14 107.09 -39.14 106.15 C-39.14 105.13 -39.14 104.12 -39.14 103.08 C-39.14 102.02 -39.15 100.96 -39.15 99.87 C-39.16 96.34 -39.16 92.82 -39.16 89.3 C-39.17 86.86 -39.17 84.42 -39.17 81.98 C-39.18 76.87 -39.18 71.75 -39.18 66.63 C-39.18 60.06 -39.19 53.49 -39.21 46.91 C-39.22 41.88 -39.22 36.84 -39.22 31.81 C-39.22 29.38 -39.23 26.96 -39.24 24.53 C-39.25 21.15 -39.24 17.77 -39.24 14.38 C-39.24 13.37 -39.25 12.36 -39.25 11.32 C-39.25 10.86 -39.25 10.86 -39.24 8.54 C-39.24 7.74 -39.24 6.94 -39.24 6.11 C-38.99 4.17 -38.99 4.17 -36.99 2.17 C-34.17 1.76 -34.17 1.76 -30.53 1.53 C-29.87 1.49 -29.22 1.45 -28.54 1.41 C-26.38 1.27 -24.22 1.16 -22.06 1.04 C-21.32 1 -20.58 0.96 -19.82 0.92 C-13.22 0.56 -6.61 0.28 0 0 Z " fill="#FAFAFA" transform="translate(367.99462890625,874.83349609375)"/>
<path d="M0 0 C2.92 1.4 5.59 3 8.31 4.75 C36.25 21.34 69.25 22.09 100.12 14.74 C110.88 11.98 120.27 7.67 129.52 1.54 C132 0 132 0 134 0 C132.17 11.01 129.16 21.49 125.82 32.13 C124.56 36.14 123.37 40.17 122.23 44.21 C120.4 50.65 118.5 57.06 116.58 63.47 C116.28 64.49 115.97 65.51 115.66 66.56 C114.39 70.81 113.11 75.06 111.84 79.31 C110.9 82.45 109.96 85.59 109.02 88.72 C108.88 89.2 108.88 89.2 108.15 91.63 C107.88 92.52 107.61 93.42 107.34 94.34 C107.1 95.12 106.87 95.9 106.62 96.71 C105.97 99.11 105.49 101.56 105 104 C80.58 104 56.16 104 31 104 C27.63 95 27.63 95 26.65 91.91 C26.43 91.21 26.21 90.51 25.98 89.79 C25.76 89.06 25.53 88.33 25.29 87.57 C25.05 86.79 24.8 86 24.54 85.19 C23.76 82.69 22.97 80.19 22.19 77.69 C21.67 76.05 21.16 74.42 20.65 72.79 C19.87 70.33 19.1 67.88 18.33 65.42 C17.03 61.26 15.71 57.1 14.39 52.94 C11.67 44.45 9.05 35.97 6.88 27.31 C6.63 26.36 6.39 25.41 6.13 24.42 C5.42 21.62 4.71 18.81 4 16 C3.79 15.15 3.57 14.3 3.35 13.42 C2.22 8.95 1.1 4.48 0 0 Z " fill="#FB7C06" transform="translate(554,733)"/>
<path d="M0 0 C1.16 -0 2.32 -0.01 3.51 -0.01 C4.72 -0 5.94 0.01 7.19 0.02 C8.4 0.01 9.62 0 10.87 -0.01 C11.45 -0.01 11.45 -0.01 14.38 0 C15.44 0 16.51 0 17.61 0.01 C20.19 0.27 20.19 0.27 22.19 2.27 C22.44 4.21 22.44 4.21 22.44 6.63 C22.45 7.55 22.45 8.46 22.46 9.41 C22.45 10.42 22.45 11.43 22.45 12.47 C22.45 13.53 22.45 14.59 22.46 15.68 C22.47 19.2 22.46 22.72 22.45 26.23 C22.45 28.67 22.46 31.11 22.46 33.54 C22.46 38.65 22.46 43.77 22.45 48.88 C22.44 55.44 22.44 62.01 22.46 68.57 C22.46 73.6 22.46 78.63 22.46 83.67 C22.45 86.09 22.46 88.51 22.46 90.93 C22.47 94.31 22.46 97.69 22.45 101.06 C22.45 102.07 22.45 103.08 22.46 104.12 C22.45 105.04 22.45 105.96 22.44 106.9 C22.44 107.7 22.44 108.5 22.44 109.32 C22.19 111.27 22.19 111.27 20.19 113.27 C15.82 113.92 11.41 113.91 7 114.02 C5.78 114.09 4.56 114.17 3.3 114.24 C-5.47 114.41 -5.47 114.41 -8.97 111.42 C-10.84 108.8 -12.32 106.12 -13.81 103.27 C-15.06 101.26 -16.31 99.26 -17.57 97.27 C-18.89 95.12 -20.19 92.98 -21.5 90.83 C-27.02 81.78 -32.6 72.78 -38.36 63.88 C-38.82 63.16 -39.28 62.44 -39.75 61.7 C-40.15 61.08 -40.55 60.46 -40.96 59.82 C-41.81 58.27 -41.81 58.27 -41.81 56.27 C-42.47 56.27 -43.13 56.27 -43.81 56.27 C-43.81 56.96 -43.81 57.66 -43.81 58.38 C-43.79 64.96 -43.77 71.54 -43.76 78.12 C-43.76 81.5 -43.75 84.88 -43.74 88.26 C-43.72 92.15 -43.72 96.03 -43.71 99.92 C-43.71 101.14 -43.7 102.36 -43.7 103.61 C-43.7 104.17 -43.7 104.17 -43.7 107.01 C-43.7 108 -43.69 109 -43.69 110.02 C-43.81 112.27 -43.81 112.27 -44.81 113.27 C-46.8 113.37 -48.79 113.4 -50.78 113.4 C-51.99 113.4 -53.2 113.4 -54.45 113.4 C-55.72 113.4 -57 113.39 -58.31 113.39 C-59.59 113.39 -60.86 113.4 -62.18 113.4 C-63.39 113.4 -64.6 113.4 -65.84 113.4 C-66.96 113.4 -68.08 113.4 -69.24 113.4 C-71.81 113.27 -71.81 113.27 -72.81 112.27 C-72.91 110.84 -72.94 109.41 -72.94 107.98 C-72.94 107.05 -72.95 106.13 -72.95 105.17 C-72.95 104.66 -72.95 104.66 -72.94 102.07 C-72.94 101 -72.95 99.93 -72.95 98.82 C-72.95 95.26 -72.95 91.7 -72.95 88.14 C-72.95 85.68 -72.95 83.22 -72.95 80.75 C-72.95 75.58 -72.95 70.42 -72.94 65.25 C-72.94 58.61 -72.94 51.96 -72.95 45.32 C-72.95 40.24 -72.95 35.15 -72.95 30.06 C-72.95 27.61 -72.95 25.16 -72.95 22.71 C-72.95 19.3 -72.95 15.88 -72.94 12.46 C-72.94 11.44 -72.95 10.41 -72.95 9.36 C-72.95 8.43 -72.94 7.51 -72.94 6.56 C-72.94 6.15 -72.94 6.15 -72.94 4.1 C-72.81 2.27 -72.81 2.27 -71.81 1.27 C-67.28 0.79 -62.74 0.71 -58.19 0.58 C-57.55 0.54 -57.55 0.54 -54.33 0.34 C-45.11 0.13 -45.11 0.13 -41.51 3.28 C-39.68 5.86 -38.22 8.44 -36.81 11.27 C-36.06 12.51 -35.31 13.75 -34.54 14.98 C-33.83 16.2 -33.13 17.42 -32.44 18.64 C-26.92 28.18 -21.18 37.58 -15.44 47 C-15.07 47.59 -14.71 48.19 -14.34 48.81 C-13.33 50.45 -12.33 52.09 -11.33 53.74 C-9.81 56.27 -9.81 56.27 -8.81 58.27 C-8.8 57.57 -8.8 56.87 -8.79 56.15 C-8.71 49.59 -8.62 43.03 -8.52 36.46 C-8.47 33.09 -8.43 29.72 -8.39 26.34 C-8.35 22.46 -8.29 18.59 -8.23 14.71 C-8.22 13.5 -8.2 12.28 -8.19 11.03 C-8.17 9.91 -8.15 8.79 -8.13 7.63 C-8.12 6.64 -8.1 5.65 -8.09 4.63 C-7.5 -0.43 -4.31 0.01 0 0 Z " fill="#FAFAFA" transform="translate(611.8125,867.734375)"/>
<path d="M0 0 C0.61 -0.04 0.61 -0.04 3.71 -0.24 C12.58 -0.45 12.58 -0.45 16.11 2.64 C17.95 5.23 19.43 7.85 20.88 10.69 C21.82 12.23 22.77 13.77 23.73 15.3 C24.65 16.87 25.58 18.43 26.5 20 C31.41 28.27 36.42 36.46 41.51 44.62 C42.02 45.44 42.53 46.27 43.06 47.11 C43.51 47.83 43.96 48.54 44.42 49.28 C46.3 52.38 48.08 55.53 49.88 58.69 C49.89 58.01 49.9 57.34 49.91 56.64 C50.01 49.65 50.13 42.66 50.25 35.67 C50.29 33.06 50.33 30.45 50.37 27.83 C50.43 24.09 50.49 20.34 50.56 16.6 C50.58 15.42 50.59 14.25 50.61 13.03 C50.63 11.95 50.65 10.87 50.67 9.76 C50.69 8.8 50.7 7.84 50.72 6.86 C50.88 4.69 50.88 4.69 51.88 3.69 C53.87 3.6 55.88 3.58 57.88 3.59 C59.09 3.59 60.31 3.6 61.56 3.6 C62.84 3.61 64.12 3.62 65.44 3.62 C66.72 3.63 68 3.63 69.33 3.64 C72.51 3.65 75.69 3.67 78.88 3.69 C78.88 4.35 78.88 5.01 78.88 5.69 C79.53 5.69 80.19 5.69 80.88 5.69 C80.92 19.73 80.96 33.78 80.98 47.83 C80.99 54.35 81 60.87 81.03 67.39 C81.05 73.68 81.06 79.97 81.06 86.26 C81.07 88.67 81.08 91.07 81.09 93.47 C81.1 96.83 81.1 100.19 81.1 103.55 C81.11 104.55 81.12 105.55 81.12 106.58 C81.12 107.5 81.12 108.41 81.12 109.35 C81.12 110.14 81.12 110.94 81.12 111.75 C80.88 113.69 80.88 113.69 78.88 115.69 C74.55 116.08 70.21 115.81 65.88 115.69 C65.25 115.7 65.25 115.7 62.11 115.77 C61.51 115.77 61.51 115.77 58.44 115.75 C57.88 115.76 57.88 115.76 55.07 115.79 C50.03 114.05 48.43 110.16 45.88 105.69 C44.97 104.2 44.06 102.72 43.16 101.24 C42.23 99.68 41.3 98.12 40.38 96.56 C39.33 94.82 38.29 93.07 37.25 91.33 C36.71 90.42 36.16 89.51 35.6 88.57 C32.55 83.47 29.46 78.39 26.38 73.31 C25.79 72.34 25.2 71.38 24.6 70.38 C24.04 69.46 23.48 68.55 22.91 67.6 C22.42 66.8 21.93 65.99 21.42 65.16 C19.63 62.3 17.76 59.49 15.88 56.69 C15.87 57.36 15.86 58.03 15.85 58.72 C15.76 65.7 15.67 72.67 15.56 79.65 C15.52 82.25 15.48 84.86 15.45 87.47 C15.41 91.2 15.35 94.94 15.29 98.68 C15.28 99.85 15.27 101.02 15.25 102.23 C15.23 103.31 15.21 104.39 15.19 105.5 C15.18 106.46 15.17 107.41 15.15 108.4 C14.88 110.69 14.88 110.69 12.88 112.69 C4.39 113.53 -4.68 112.66 -13.12 111.69 C-14.69 110.12 -14.25 108.61 -14.25 106.44 C-14.25 105.52 -14.26 104.6 -14.26 103.66 C-14.26 102.64 -14.26 101.63 -14.25 100.58 C-14.26 99.52 -14.26 98.46 -14.26 97.37 C-14.26 93.84 -14.26 90.31 -14.26 86.78 C-14.26 84.34 -14.26 81.9 -14.26 79.46 C-14.26 74.34 -14.26 69.22 -14.26 64.1 C-14.25 57.52 -14.25 50.93 -14.26 44.35 C-14.26 39.31 -14.26 34.27 -14.26 29.23 C-14.26 26.8 -14.26 24.38 -14.26 21.95 C-14.26 18.56 -14.26 15.18 -14.25 11.79 C-14.26 10.78 -14.26 9.76 -14.26 8.72 C-14.26 7.8 -14.25 6.88 -14.25 5.94 C-14.25 5.14 -14.25 4.34 -14.25 3.51 C-13.89 -1.74 -3.9 0.11 0 0 Z " fill="#FAFAFA" transform="translate(849.125,873.3125)"/>
<path d="M0 0 C-1.51 3.05 -3.08 6.06 -4.68 9.07 C-5.2 10.05 -5.71 11.03 -6.25 12.04 C-7.32 14.07 -8.4 16.11 -9.48 18.14 C-18.29 34.89 -18.29 34.89 -17.69 39.21 C-17 41 -17 41 -15.46 42.09 C-7.02 45.52 1.63 48.35 10.33 51.02 C13 52 13 52 15 54 C14.69 54.34 14.69 54.34 13.09 56.05 C7.46 62.18 2.11 68.42 -3 75 C-1.69 78.66 -0.11 81.45 2.27 84.52 C2.93 85.37 3.58 86.22 4.26 87.09 C4.61 87.54 4.61 87.54 6.38 89.81 C7.83 91.7 9.29 93.6 10.75 95.49 C11.47 96.42 12.19 97.36 12.94 98.32 C15.78 102.02 18.58 105.76 21.38 109.5 C25.77 115.39 30.24 121.23 34.75 127.04 C36.42 129.23 38.04 131.44 39.64 133.69 C40.08 134.31 40.53 134.93 40.99 135.57 C41.32 136.04 41.66 136.51 42 137 C35.19 137.29 28.38 137.57 21.57 137.85 C19.26 137.95 16.95 138.05 14.64 138.15 C1.42 138.71 -11.76 139.17 -25 139 C-25.02 134.07 -25.04 129.15 -25.05 124.22 C-25.06 122.55 -25.07 120.88 -25.08 119.21 C-25.12 110.09 -25.12 101.07 -24 92 C-24.66 92 -25.32 92 -26 92 C-27.32 88.7 -28.64 85.4 -30 82 C-34.41 100.81 -35.69 119.77 -37 139 C-42.23 139.29 -47.46 139.57 -52.69 139.85 C-54.46 139.95 -56.24 140.05 -58.01 140.15 C-76.16 141.15 -76.16 141.15 -85 141 C-83.75 103.23 -68.03 64.28 -43 36 C-42.14 35.01 -41.27 34.03 -40.38 33.01 C-11.02 0 -11.02 0 0 0 Z " fill="#FAFAFB" transform="translate(485,701)"/>
<path d="M0 0 C2.69 1.35 2.69 1.35 5 4 C5.67 7.7 5.51 11.32 5.38 15.06 C5.36 16.05 5.35 17.04 5.33 18.05 C5.2 24.73 4.69 31.36 4 38 C4.08 37.44 4.15 36.88 4.23 36.31 C4.58 33.72 4.95 31.14 5.31 28.56 C5.43 27.68 5.55 26.81 5.67 25.9 C7.78 11.22 7.78 11.22 12 7 C15.42 6.55 17.32 6.6 20.31 8.38 C22.85 12.33 22.82 16.38 23 21 C23.99 19.68 24.98 18.36 26 17 C28.94 17.38 28.94 17.38 32 18 C37.54 29.09 31.87 49.36 30 61 C30.66 61 31.32 61 32 61 C32.1 59.7 32.21 58.4 32.31 57.06 C32.83 52.03 33.56 47.05 34.38 42.06 C34.49 41.32 34.6 40.57 34.72 39.8 C35.23 36.82 35.66 34.46 37.48 32 C39 31 39 31 41 31 C43.92 32.46 44.6 34.05 46 37 C46.29 39.85 46.42 42.47 46.4 45.32 C46.4 45.72 46.4 45.72 46.41 47.76 C46.42 50.36 46.4 52.96 46.38 55.56 C46.37 56.45 46.37 57.33 46.36 58.24 C46.29 71.06 45.78 83.45 43 96 C42.72 97.46 42.44 98.92 42.16 100.39 C40.02 110.81 36.43 119.11 27.56 125.5 C16.3 132.2 2.35 131.05 -10 128 C-19.99 124.71 -29.33 118.04 -34.26 108.58 C-35.45 105.87 -36.56 103.14 -37.62 100.38 C-38.01 99.4 -38.4 98.43 -38.79 97.43 C-47.19 75.96 -47.19 75.96 -46 69 C-44 66 -42.74 65.19 -39.25 64.31 C-34.31 65.36 -31.27 68.24 -28 72 C-26.5 75.44 -26.5 75.44 -26 78 C-25.01 78 -24.02 78 -23 78 C-22.99 77.05 -22.97 76.09 -22.96 75.11 C-22.43 43.09 -22.43 43.09 -20.75 27.38 C-20.65 26.36 -20.56 25.35 -20.46 24.3 C-19.45 15.88 -16.75 8.42 -10.62 2.38 C-7.08 -0.33 -4.46 -0.83 0 0 Z " fill="#CEDDE5" transform="translate(903,460)"/>
<path d="M0 0 C2.41 0.27 2.41 0.27 4.22 2.02 C4.46 2.4 4.46 2.4 5.73 4.27 C6.24 5.02 6.75 5.76 7.28 6.52 C7.65 7.1 8.03 7.68 8.41 8.27 C7.85 8.34 7.28 8.4 6.7 8.47 C-3.74 9.69 -14.03 11.11 -24.21 13.77 C-24.6 13.87 -24.6 13.87 -26.59 14.38 C-30.48 15.45 -33.58 16.54 -36.59 19.27 C-36.59 21.52 -36.59 21.52 -35.59 24.27 C-15.63 37.45 16.86 36.4 39.73 36.48 C40.38 36.48 41.04 36.48 41.71 36.49 C45.2 36.5 48.68 36.51 52.17 36.51 C54.97 36.52 57.77 36.53 60.58 36.56 C91.2 36.8 122.26 35.56 151.41 25.27 C151.74 23.29 152.07 21.31 152.41 19.27 C138.25 10.24 118.78 9.39 102.41 8.27 C103.19 6.92 104.01 5.59 104.85 4.27 C105.08 3.9 105.08 3.9 106.22 2.02 C110.64 -1.5 116.86 0.17 122.18 0.75 C123.87 0.98 125.55 1.22 127.23 1.46 C128.13 1.59 129.03 1.72 129.96 1.86 C164.52 7.19 164.52 7.19 175.21 16.46 C177.98 20.62 177.22 26.03 177.1 30.84 C177.11 31.4 177.11 31.4 177.15 34.28 C177.06 42.5 177.06 42.5 174.21 45.9 C173.29 46.35 172.36 46.81 171.41 47.27 C170.56 47.72 169.71 48.16 168.83 48.62 C120.62 68.6 56.35 68.51 5.41 62.27 C4.86 62.21 4.86 62.21 2.07 61.87 C-46.15 55.79 -46.15 55.79 -59.14 44.23 C-62.08 40.24 -61.63 35.61 -61.52 30.84 C-61.54 30.33 -61.54 30.33 -61.63 27.77 C-61.61 23.57 -61.51 20.5 -58.93 17.07 C-55.38 13.84 -51.76 11.46 -47.15 10.02 C-46.73 9.89 -46.73 9.89 -44.59 9.2 C-44.09 9.04 -44.09 9.04 -41.59 8.27 C-40.92 8.04 -40.26 7.81 -39.58 7.57 C-34 5.63 -28.45 4.27 -22.65 3.15 C-21.82 2.98 -20.99 2.81 -20.13 2.64 C-13.44 1.32 -6.77 0.72 0 0 Z " fill="#F7F8F9" transform="translate(565.585693359375,324.72607421875)"/>
<path d="M0 0 C0 15.51 0 31.02 0 47 C2.97 47 5.94 47 9 47 C5.92 49.06 4.16 49.52 0.58 50.18 C-0.5 50.39 -1.58 50.59 -2.7 50.8 C-3.27 50.91 -3.27 50.91 -6.19 51.44 C-7.36 51.66 -8.54 51.88 -9.75 52.1 C-12.1 52.54 -14.45 52.98 -16.8 53.41 C-19.46 53.9 -22.13 54.41 -24.79 54.92 C-25.47 55.05 -26.15 55.19 -26.86 55.32 C-27.48 55.44 -28.11 55.56 -28.75 55.69 C-31.17 56.15 -33.58 56.59 -36 57 C-36.9 57.17 -37.8 57.34 -38.72 57.51 C-50.43 59.49 -62.15 59.4 -74 59.38 C-75.11 59.37 -76.21 59.37 -77.35 59.37 C-101.62 59.33 -124.77 57.48 -148 50 C-150.33 49.32 -152.66 48.66 -155 48 C-155 47.67 -155 47.34 -155 47 C-148.77 46.73 -144.48 47.7 -138 49 C-138 33.16 -138 17.32 -138 1 C-116 2.05 -116 2.05 -108.49 2.8 C-103.48 3.2 -98.46 3.16 -93.44 3.17 C-92.85 3.17 -92.85 3.17 -89.86 3.18 C-87.36 3.18 -84.86 3.19 -82.36 3.19 C-78.63 3.19 -74.91 3.21 -71.19 3.22 C-52.69 3.27 -34.28 2.49 -15.89 0.43 C-10.61 -0.03 -5.3 0 0 0 Z " fill="#F2F6F9" transform="translate(696,394)"/>
<path d="M0 0 C0.58 0 0.58 0 3.5 0.01 C4.76 0.01 6.01 0.02 7.3 0.02 C7.96 0.02 7.96 0.02 11.28 0.06 C11.94 0.06 11.94 0.06 15.28 0.06 C25.08 0.1 25.08 0.1 26.22 1.24 C26.33 3.58 26.39 5.88 26.4 8.22 C26.4 8.95 26.41 9.68 26.42 10.43 C26.44 12.86 26.45 15.3 26.46 17.73 C26.46 18.56 26.46 19.39 26.47 20.25 C26.49 24.67 26.5 29.08 26.51 33.5 C26.52 38.04 26.56 42.57 26.6 47.11 C26.63 50.62 26.63 54.12 26.64 57.63 C26.64 59.3 26.65 60.97 26.67 62.64 C26.83 77.54 24.86 91.73 14.41 103.24 C2.63 114.28 -11.09 115.75 -26.54 115.43 C-39.03 114.99 -49.1 111.04 -57.8 101.85 C-63.96 93.74 -65.93 84.51 -65.93 74.55 C-65.93 73.79 -65.93 73.03 -65.94 72.25 C-65.95 69.75 -65.95 67.26 -65.95 64.76 C-65.95 63.03 -65.96 61.29 -65.96 59.55 C-65.97 55.92 -65.97 52.28 -65.97 48.65 C-65.97 43.99 -65.98 39.32 -66 34.66 C-66.01 31.07 -66.01 27.49 -66.01 23.91 C-66.01 22.19 -66.02 20.47 -66.02 18.75 C-66.03 16.35 -66.03 13.95 -66.02 11.55 C-66.03 10.84 -66.04 10.12 -66.04 9.39 C-66.01 4.47 -66.01 4.47 -63.78 2.24 C-61.09 2 -61.09 2 -57.72 2.01 C-56.51 2.01 -55.3 2.02 -54.06 2.02 C-52.79 2.03 -51.52 2.04 -50.22 2.06 C-49.58 2.06 -49.58 2.06 -46.37 2.06 C-36.92 2.1 -36.92 2.1 -35.78 3.24 C-35.68 5.47 -35.65 7.7 -35.64 9.93 C-35.64 10.28 -35.64 10.28 -35.63 12.05 C-35.62 13.57 -35.62 15.1 -35.61 16.62 C-35.61 19.04 -35.59 21.46 -35.57 23.88 C-35.52 30.75 -35.47 37.63 -35.46 44.51 C-35.45 48.71 -35.42 52.91 -35.37 57.11 C-35.36 58.71 -35.36 60.31 -35.36 61.91 C-35.38 79.43 -35.38 79.43 -28.9 86.22 C-24.47 88.36 -19.56 87.81 -14.78 87.24 C-10 85.15 -8.33 82.96 -6.39 78.18 C-5.39 75.01 -5.39 72 -5.38 68.69 C-5.37 67.97 -5.37 67.25 -5.36 66.51 C-5.34 64.15 -5.34 61.8 -5.34 59.44 C-5.33 57.8 -5.31 56.15 -5.3 54.51 C-5.26 50.2 -5.24 45.89 -5.23 41.58 C-5.2 34.66 -5.16 27.74 -5.11 20.82 C-5.09 18.41 -5.09 15.99 -5.08 13.57 C-5.07 12.1 -5.06 10.63 -5.05 9.15 C-5.05 7.86 -5.04 6.57 -5.04 5.25 C-4.7 1.27 -4.01 0.35 0 0 Z " fill="#FAFAFA" transform="translate(496.781494140625,869.757080078125)"/>
<path d="M0 0 C0.96 0.76 1.92 1.53 2.91 2.31 C3.43 2.72 3.95 3.13 4.48 3.56 C22.19 17.84 34.65 38.3 42.97 59.31 C42.97 59.97 42.97 60.63 42.97 61.31 C39.02 62.75 35.06 64.19 31.1 65.62 C29.99 66.03 28.88 66.43 27.74 66.85 C19.6 69.8 11.5 72.7 2.97 74.31 C5.91 78.93 9.18 83.01 12.79 87.12 C13.85 88.36 14.91 89.59 15.97 90.83 C17.76 92.91 19.56 94.98 21.38 97.05 C22.03 97.82 22.68 98.58 23.35 99.38 C23.91 100.03 24.48 100.68 25.06 101.35 C25.97 103.31 25.97 103.31 25.53 105.55 C23.31 109.5 20.55 112.91 17.72 116.44 C12.68 122.81 7.76 129.25 2.97 135.81 C-1.85 142.41 -6.76 148.93 -11.78 155.38 C-12.37 156.14 -12.97 156.91 -13.59 157.7 C-17.76 163.05 -17.76 163.05 -20.03 165.31 C-22.82 165.54 -22.82 165.54 -26.35 165.51 C-26.98 165.5 -26.98 165.5 -30.16 165.49 C-31.47 165.47 -32.79 165.45 -34.15 165.44 C-35.49 165.43 -36.83 165.42 -38.17 165.41 C-41.46 165.39 -44.74 165.35 -48.03 165.31 C-46.52 156.36 -43.86 147.85 -41.15 139.21 C-40.33 136.58 -39.51 133.96 -38.7 131.34 C-37.15 126.33 -35.59 121.32 -34.03 116.31 C-29.54 101.91 -25.37 87.49 -21.68 72.87 C-21.1 70.58 -20.5 68.3 -19.91 66.02 C-18.89 62.13 -17.95 58.22 -17.03 54.31 C-16.84 53.56 -16.66 52.81 -16.47 52.03 C-13.07 37.85 -10.85 22.76 -14.03 8.31 C-14.09 6.71 -14.11 5.1 -14.09 3.5 C-14.08 2.71 -14.07 1.92 -14.06 1.11 C-14.05 0.51 -14.04 -0.08 -14.03 -0.69 C-9.05 -2.28 -4.63 -2.58 0 0 Z " fill="#F9FAFA" transform="translate(721.02734375,671.6875)"/>
<path d="M0 0 C0.45 0.01 0.45 0.01 2.74 0.06 C3.25 0.07 3.25 0.07 5.85 0.11 C6.97 0.14 8.08 0.17 9.23 0.2 C10.39 0.22 11.54 0.24 12.74 0.27 C15.19 0.32 17.65 0.37 20.11 0.43 C23.82 0.52 27.53 0.6 31.23 0.67 C41.47 0.88 51.71 1.12 61.94 1.63 C63.25 1.69 64.55 1.75 65.89 1.82 C68.82 2.21 68.82 2.21 70.82 4.21 C71.07 6.53 71.07 6.53 71.05 9.4 C71.05 10.43 71.05 11.45 71.05 12.51 C71.04 13.59 71.02 14.66 71.01 15.77 C71.01 16.31 71.01 16.31 71.01 19.04 C70.96 27.07 70.96 27.07 69.82 28.21 C68.47 28.3 67.12 28.33 65.76 28.32 C64.9 28.32 64.04 28.32 63.15 28.32 C62.22 28.32 61.28 28.31 60.32 28.31 C59.37 28.31 58.41 28.3 57.43 28.3 C54.38 28.3 51.32 28.28 48.26 28.27 C46.19 28.27 44.13 28.26 42.06 28.26 C36.98 28.25 31.9 28.23 26.82 28.21 C26.82 33.49 26.82 38.77 26.82 44.21 C27.84 44.2 27.84 44.2 33.01 44.15 C39.75 44.12 46.47 44.34 53.2 44.65 C54.13 44.69 55.07 44.73 56.03 44.77 C56.46 44.79 56.46 44.79 58.66 44.89 C59.44 44.93 60.22 44.97 61.02 45 C62.82 45.21 62.82 45.21 63.82 46.21 C63.92 47.9 63.95 49.6 63.96 51.3 C63.96 52.33 63.96 53.36 63.96 54.42 C63.96 55.51 63.95 56.59 63.95 57.71 C63.95 58.79 63.96 59.88 63.96 60.99 C63.96 62.02 63.96 63.05 63.96 64.12 C63.96 65.07 63.95 66.02 63.95 67 C63.82 69.21 63.82 69.21 62.82 70.21 C60.17 70.31 57.54 70.35 54.89 70.33 C54.49 70.33 54.49 70.33 52.48 70.33 C43.9 70.27 35.38 69.75 26.82 69.21 C26.82 75.15 26.82 81.09 26.82 87.21 C28.5 87.2 30.18 87.19 31.91 87.17 C53.05 87.07 53.05 87.07 62.89 87.65 C63.59 87.69 64.29 87.73 65.01 87.77 C69.69 88.08 69.69 88.08 70.82 89.21 C70.92 90.98 70.95 92.75 70.96 94.52 C70.96 95.6 70.96 96.67 70.96 97.78 C70.96 98.91 70.95 100.04 70.95 101.21 C70.95 102.34 70.96 103.47 70.96 104.64 C70.96 105.71 70.96 106.79 70.96 107.9 C70.96 108.89 70.95 109.88 70.95 110.91 C70.82 113.21 70.82 113.21 69.82 114.21 C67.67 114.31 65.52 114.34 63.37 114.34 C63.03 114.34 63.03 114.34 61.32 114.35 C59.07 114.35 56.82 114.34 54.57 114.33 C53.81 114.33 53.04 114.33 52.25 114.33 C40.41 114.3 28.57 114.16 16.73 113.89 C15.09 113.85 13.44 113.82 11.79 113.79 C9.49 113.74 7.19 113.69 4.88 113.62 C3.57 113.59 2.25 113.56 0.89 113.53 C-2.18 113.21 -2.18 113.21 -4.18 111.21 C-4.43 109.27 -4.43 109.27 -4.43 106.84 C-4.43 106.39 -4.43 106.39 -4.45 104.07 C-4.44 103.06 -4.44 102.05 -4.43 101.01 C-4.44 99.95 -4.44 98.89 -4.45 97.8 C-4.45 94.28 -4.45 90.76 -4.44 87.24 C-4.44 84.8 -4.45 82.37 -4.45 79.93 C-4.45 74.82 -4.45 69.71 -4.44 64.6 C-4.43 58.03 -4.43 51.47 -4.44 44.91 C-4.45 39.87 -4.45 34.84 -4.44 29.81 C-4.44 27.39 -4.44 24.97 -4.45 22.55 C-4.45 19.17 -4.45 15.79 -4.43 12.41 C-4.44 11.4 -4.44 10.39 -4.45 9.35 C-4.44 8.44 -4.44 7.52 -4.43 6.57 C-4.43 5.78 -4.43 4.98 -4.43 4.15 C-4.04 1.18 -2.93 0.28 0 0 Z " fill="#F8F8F8" transform="translate(749.1761627197266,869.7907257080078)"/>
<path d="M0 0 C0.25 5.13 0.08 9.17 -1.5 14.06 C-6.31 30.39 -1.91 48.65 2.73 64.5 C3.72 67.93 4.56 71.36 5.32 74.84 C8.03 87.27 12.05 99.32 15.88 111.45 C17.48 116.54 19.02 121.64 20.56 126.75 C23.43 136.24 26.44 145.68 29.51 155.11 C29.84 156.11 30.16 157.11 30.5 158.14 C30.79 159.04 31.08 159.93 31.38 160.84 C32 163 32 163 32 165 C6.56 167.36 6.56 167.36 -0.44 163.74 C-4.22 160.47 -6.59 156.38 -8.9 152 C-10.53 149.03 -12.62 146.5 -14.75 143.88 C-16 142.25 -17.24 140.62 -18.48 138.98 C-20.3 136.61 -22.12 134.24 -23.93 131.87 C-25.35 130.02 -26.77 128.17 -28.19 126.31 C-28.85 125.45 -29.52 124.58 -30.2 123.69 C-31.5 121.98 -32.79 120.28 -34.08 118.56 C-35.4 116.8 -36.75 115.04 -38.12 113.31 C-38.77 112.44 -39.43 111.56 -40.11 110.67 C-40.72 109.89 -41.32 109.11 -41.94 108.31 C-43 106 -43 106 -42.34 103.4 C-40.47 100.05 -37.96 97.43 -35.31 94.69 C-34.23 93.54 -33.14 92.38 -32.05 91.23 C-31.53 90.68 -31 90.12 -30.46 89.55 C-28.59 87.56 -26.75 85.54 -24.94 83.5 C-24.68 83.22 -24.68 83.22 -23.4 81.78 C-21.71 79.64 -20.39 77.35 -19 75 C-19.71 74.9 -20.41 74.81 -21.14 74.71 C-29.28 73.49 -36.92 71.38 -44.75 68.88 C-45.94 68.5 -47.12 68.13 -48.34 67.75 C-51.23 66.84 -54.12 65.92 -57 65 C-56.61 58.14 -53.76 52.93 -50.56 46.94 C-50.02 45.92 -49.48 44.9 -48.93 43.85 C-44.55 35.72 -39.75 28.22 -34 21 C-33.35 20.17 -32.7 19.33 -32.02 18.47 C-25.13 10.18 -11.69 -3.51 0 0 Z " fill="#F9F9FA" transform="translate(538,672)"/>
<path d="M0 0 C3.49 3.23 3.49 3.23 4.66 5.2 C4.42 8.63 2.81 10.47 0.53 12.95 C-0.09 13.63 -0.71 14.32 -1.36 15.02 C-2.01 15.74 -2.67 16.46 -3.34 17.2 C-4.66 18.69 -5.97 20.19 -7.28 21.7 C-8.3 22.86 -9.32 24.03 -10.34 25.2 C-13.7 24.59 -15.65 23.39 -18.28 21.26 C-23.28 17.21 -27.4 15.9 -33.84 15.82 C-34.4 15.81 -34.4 15.81 -37.19 15.73 C-41.03 16.3 -42.68 17.41 -45.34 20.2 C-45.41 23.76 -45.41 23.76 -44.34 27.2 C-41.58 29.74 -38.98 30.8 -35.38 31.77 C-34.42 32.04 -33.46 32.31 -32.47 32.59 C-31.46 32.87 -30.45 33.16 -29.41 33.45 C-17.04 37.04 -3.42 41.37 3.91 52.76 C4.41 53.52 4.91 54.29 5.42 55.07 C9.22 61.6 8.56 70.86 7.66 78.2 C6.23 82.65 4.27 86.33 1.66 90.2 C1.45 90.51 1.45 90.51 0.43 92.08 C-5.6 100.24 -16.26 103.87 -25.78 105.95 C-43.26 107.17 -60.17 105.21 -73.97 93.51 C-76.2 91.46 -77.64 89.76 -79.34 87.2 C-78.88 81.98 -74.53 78.87 -71.03 75.38 C-70.69 75.03 -70.69 75.03 -68.98 73.24 C-68.32 72.58 -67.66 71.92 -66.98 71.24 C-66.38 70.63 -65.78 70.02 -65.16 69.4 C-63.34 68.2 -63.34 68.2 -61.25 68.41 C-58.79 69.43 -57.07 70.86 -55.03 72.57 C-47.22 78.72 -41.59 79.55 -31.87 79.79 C-27.48 79.05 -26.05 77.65 -23.34 74.2 C-22.66 71.13 -22.66 71.13 -23.34 68.2 C-29.71 62.69 -38.46 61.08 -46.34 58.64 C-52.96 56.52 -58.7 54.28 -64.34 50.2 C-65.23 49.6 -66.12 49 -67.03 48.38 C-73.05 42.69 -75.81 35.84 -76.75 27.65 C-77.04 16.28 -74.33 8.19 -66.59 -0.24 C-48.87 -16.48 -18.28 -14.07 0 0 Z " fill="#F9F9F9" transform="translate(724.34375,877.8046875)"/>
<path d="M0 0 C16.16 7.35 27.74 28.21 33.93 43.95 C39.75 60.61 39.64 76.68 32.71 93.04 C27.24 103.87 19.18 111.59 9 118 C8.69 118.22 8.69 118.22 7.13 119.32 C2.52 122.37 -1.66 122.83 -7 122 C-9.44 120.81 -9.44 120.81 -12 119 C-13.6 118.24 -15.2 117.49 -16.81 116.75 C-28.57 110.88 -35.47 101.14 -40 89 C-43.17 79.41 -41.81 67.52 -37.48 58.63 C-32.51 49.78 -26.47 40.61 -17.88 34.94 C-9.43 29.25 -3.5 18.3 -1.18 8.57 C-0.7 5.71 -0.3 2.88 0 0 Z " fill="#FDBE3E" transform="translate(624,226)"/>
<path d="M0 0 C8.31 6.61 13.84 13.85 16.75 24.19 C17.99 35.56 16.42 45.55 9.77 55.01 C4.85 60.84 -3.12 68.57 -11.15 69.38 C-24.75 69.85 -33.68 69.53 -44.06 60 C-51.57 52.02 -55.88 41.77 -55.56 30.73 C-54.24 19.82 -49.95 10.17 -41.63 2.9 C-27.88 -7.58 -15.31 -8.54 0 0 Z " fill="#081C2B" transform="translate(717.25,508.8125)"/>
<path d="M0 0 C8.36 4.97 14.29 12.92 17.12 22.16 C19.61 32.13 18.91 42.31 14.08 51.53 C11.31 55.81 8.28 59.57 4.44 62.94 C3.95 63.37 3.46 63.8 2.96 64.24 C-3.73 69.61 -12.46 71.65 -20.95 71.35 C-30.52 69.83 -38.73 65.15 -44.43 57.39 C-46.27 54.63 -47.95 51.83 -49.56 48.94 C-49.93 48.29 -50.29 47.64 -50.67 46.98 C-54.42 38.92 -53.69 28.32 -51 20.06 C-46.88 10.3 -39.51 1.96 -29.81 -2.44 C-20.04 -6 -9.2 -4.56 0 0 Z " fill="#081C2B" transform="translate(567.5625,508.0625)"/>
<path d="M0 0 C11.58 10.78 16.8 25.08 17.38 40.57 C17.19 54.59 11.18 67.26 1.39 77.15 C-11.41 88.08 -24.16 91.42 -40.65 90.64 C-53.29 89.56 -63.1 82.04 -71.63 73.23 C-79.37 63.87 -82.33 53.04 -82.25 41.13 C-82.24 40.71 -82.24 40.71 -82.23 38.6 C-81.97 25.34 -77.33 13.28 -68.16 3.49 C-48.12 -14.9 -21.88 -17.59 0 0 Z M-55.93 15.45 C-57.96 17.99 -59.53 20.52 -60.93 23.45 C-61.25 24.1 -61.57 24.75 -61.89 25.42 C-65.3 33.76 -65.47 44.23 -62.43 52.7 C-57.2 63.71 -50.16 71.42 -39 76.32 C-29.72 79.37 -20.73 77.05 -11.93 73.45 C-3.92 69.2 1.63 61.54 4.94 53.2 C8.03 42.9 7.75 33.55 4.07 23.45 C-0.94 14.23 -8.08 7.2 -17.93 3.45 C-21.25 2.7 -21.25 2.7 -24.93 2.45 C-25.35 2.41 -25.35 2.41 -27.46 2.25 C-39.74 1.72 -47.69 6.58 -55.93 15.45 Z " fill="#F9FAFA" transform="translate(578.93359375,501.5546875)"/>
<path d="M0 0 C12.6 9.17 20 19.6 22.95 35.05 C24.64 51.37 22.78 63.84 12.57 77.05 C4.71 85.97 -5.99 93.41 -18.05 95.05 C-31.13 95.85 -42.98 94.5 -54.05 87.05 C-54.46 86.78 -54.46 86.78 -56.55 85.41 C-67.19 77.71 -73.82 65.95 -76.05 53.05 C-76.94 43.52 -76.92 33.95 -73.05 25.05 C-72.72 24.24 -72.39 23.43 -72.06 22.59 C-66.44 9.99 -55.34 -0.34 -42.55 -5.45 C-28.41 -9.59 -12.12 -8.38 0 0 Z M-58.13 20.63 C-63.85 29.04 -67.51 38.78 -66.05 49.05 C-63.41 61.14 -58.21 69.87 -48.05 77.05 C-42.17 80.76 -37.14 81.77 -30.24 81.68 C-29.36 81.67 -28.48 81.66 -27.57 81.65 C-20.19 81.4 -14.87 79.76 -9.05 75.05 C-8.68 74.76 -8.68 74.76 -6.83 73.3 C0.41 66.83 5.41 57.51 6.22 47.8 C6.54 36.17 4.32 27.63 -3.36 18.62 C-10.91 10.83 -19.51 6.08 -30.49 5.62 C-41.76 6.01 -51.14 11.96 -58.13 20.63 Z " fill="#F9F9FA" transform="translate(728.05126953125,496.9453125)"/>
<path d="M0 0 C6.24 -0.38 9.37 0.59 14.08 4.66 C28.63 16.56 50.62 15.56 68.3 14.02 C79.61 12.61 91.82 8.61 100.11 0.32 C113.86 -1.08 129.11 1.78 142.23 5.82 C142.89 6.03 143.55 6.23 144.22 6.43 C147.49 7.52 150.05 8.48 152.11 11.32 C151.96 13.77 151.41 14.96 149.84 16.83 C129.6 34.36 83.2 29.82 57.72 29.65 C54.97 29.63 52.22 29.64 49.48 29.64 C-22.79 29.74 -22.79 29.74 -38.89 15.32 C-38.59 12.56 -38.39 10.83 -36.41 8.82 C-32.77 6.66 -28.98 5.78 -24.89 4.76 C-24.04 4.55 -23.19 4.33 -22.31 4.11 C-14.9 2.26 -7.59 0.85 0 0 Z " fill="#0A1D2B" transform="translate(566.890625,332.67578125)"/>
<path d="M0 0 C3.63 0.67 6.94 2.03 10.38 3.34 C29.95 10.6 51.91 9.37 71.02 1.29 C74.77 -0.11 78.38 -0.17 82.32 0.43 C85.14 2.57 85.26 4.02 85.76 7.49 C84.37 20 77.29 30.91 67.67 38.86 C54.34 47.74 39.34 49.72 23.74 46.75 C17.67 44.65 12.43 41.26 7.32 37.43 C6.29 36.69 5.26 35.94 4.2 35.18 C-2.73 28.56 -9.61 19.06 -10.18 9.18 C-9.31 2.65 -6.91 -0.43 0 0 Z " fill="#091C2A" transform="translate(583.6796875,593.5703125)"/>
<path d="M0 0 C0.33 0 0.66 0 1 0 C1.33 13.2 1.66 26.4 2 40 C2.99 40.33 3.98 40.66 5 41 C3.95 63.36 -5.68 88.55 -22 104 C-64.63 139.7 -139.75 138.01 -191.62 133.62 C-205.61 132.37 -219.33 130.26 -233 127 C-233.93 126.78 -234.87 126.56 -235.83 126.33 C-255.09 121.65 -275.43 114.16 -289 99 C-289.12 98.11 -289.25 97.23 -289.38 96.31 C-290.01 92.92 -290.72 91.77 -292.69 89.06 C-304.37 72.3 -305.56 52.75 -305 33 C-302.77 36.35 -302.57 38.24 -302 42.19 C-299.25 57.88 -291.98 74.56 -282 87 C-281.37 87.8 -280.73 88.6 -280.08 89.43 C-264.52 107.94 -240.06 118.42 -217 124 C-216.66 124.08 -216.66 124.08 -214.91 124.51 C-212.65 125.07 -210.39 125.6 -208.12 126.12 C-207.79 126.2 -207.79 126.2 -206.09 126.61 C-191.3 129.9 -176.59 130.37 -161.5 130.31 C-160.52 130.31 -159.54 130.31 -158.52 130.31 C-129.89 130.21 -102.32 128.1 -75.04 118.67 C-72.86 117.95 -70.66 117.38 -68.44 116.81 C-57.13 113.44 -46.24 107.25 -37 100 C-36.33 99.49 -35.66 98.99 -34.97 98.46 C-25.72 90.99 -18.69 81.26 -15 70 C-14.47 68.6 -13.93 67.21 -13.39 65.81 C-6.95 48.85 -2.59 30.95 -2.28 12.74 C-2.19 8.11 -1.42 4.37 0 0 Z " fill="#B9CFDC" transform="translate(776,529)"/>
<path d="M0 0 C-0.18 0.63 -0.36 1.27 -0.55 1.92 C-2.35 8.59 -3.6 15.24 -4.62 22.06 C-4.75 22.88 -4.87 23.69 -5 24.53 C-6.63 35.77 -7.3 46.95 -7.38 58.31 C-7.38 59.02 -7.38 59.73 -7.39 60.46 C-7.44 79.06 -4.14 96.89 0 115 C-7.82 115.89 -14.91 112.75 -21.34 108.43 C-33.24 98.63 -36.97 84.77 -39 70 C-39.26 66.2 -39.29 62.43 -39.25 58.62 C-39.24 57.62 -39.24 56.61 -39.23 55.58 C-39.01 39.44 -36.41 22.36 -25.15 9.96 C-17.95 3.22 -9.82 -0.07 0 0 Z " fill="#F9840B" transform="translate(453,487)"/>
<path d="M0 0 C1 4.01 1 4.92 -0.15 8.64 C-0.29 9.09 -0.29 9.09 -0.99 11.36 C-1.15 11.84 -1.15 11.84 -1.94 14.25 C-2.26 15.23 -2.57 16.22 -2.9 17.23 C-5.59 25.27 -8.93 32.7 -12.99 40.13 C-14.01 42.03 -15 43.94 -15.97 45.86 C-24.35 62.26 -35.44 76.56 -48 90 C-48.76 90.81 -49.52 91.63 -50.3 92.46 C-56.99 99.39 -64.32 105.24 -72 111 C-72.82 111.63 -73.64 112.25 -74.48 112.9 C-86.13 121.45 -100.17 129.61 -114 134 C-117 133 -117 133 -117.98 131.23 C-118.12 130.86 -118.12 130.86 -118.82 128.96 C-119.13 128.16 -119.44 127.35 -119.75 126.51 C-120.06 125.66 -120.37 124.81 -120.69 123.94 C-120.85 123.51 -120.85 123.51 -121.66 121.35 C-122.45 119.24 -123.23 117.12 -124 115 C-119.35 112.98 -114.67 111.08 -109.94 109.25 C-92.46 102.35 -92.46 102.35 -85.73 97.29 C-84 96 -84 96 -82 96 C-81.84 95.5 -81.84 95.5 -81 93 C-79.48 91.72 -79.48 91.72 -77.62 90.5 C-75.14 88.85 -73.05 87.17 -71 85 C-70.67 85.66 -70.34 86.32 -70 87 C-69.67 85.02 -69.34 83.04 -69 81 C-68.01 80.67 -67.02 80.34 -66 80 C-65.67 80.99 -65.34 81.98 -65 83 C-46.19 69.57 -34.06 49.49 -26.18 28.11 C-25.35 25.93 -24.46 23.77 -23.52 21.64 C-21.86 17.67 -20.56 13.68 -19.31 9.56 C-18.93 8.31 -18.93 8.31 -17 2 C-14.19 1.67 -14.19 1.67 0 0 Z " fill="#C5D8E2" transform="translate(925,635)"/>
<path d="M0 0 C-0.47 3.27 -0.96 6.54 -1.44 9.81 C-1.57 10.74 -1.71 11.67 -1.85 12.63 C-1.98 13.52 -2.11 14.41 -2.25 15.33 C-2.37 16.15 -2.49 16.98 -2.61 17.82 C-3 20 -3 20 -4 23 C-4.27 24.94 -4.51 26.89 -4.72 28.84 C-4.85 29.99 -4.97 31.13 -5.11 32.31 C-5.24 33.51 -5.37 34.7 -5.5 35.94 C-5.76 38.3 -6.02 40.66 -6.28 43.03 C-6.4 44.08 -6.51 45.13 -6.63 46.21 C-7.27 51 -7.27 51 -8 53 C-8.99 53.66 -9.98 54.32 -11 55 C-9.76 55.11 -8.51 55.22 -7.23 55.33 C8.4 56.78 22.19 59.11 34.85 69.29 C38.56 73.96 37.73 79.37 37.24 85.04 C35.94 95.53 31.41 107.49 23.31 114.56 C18.54 118.26 15.33 119.27 9.31 119.12 C8.61 119.12 7.91 119.11 7.19 119.1 C5.46 119.07 3.73 119.04 2 119 C2.22 118.42 2.43 117.83 2.66 117.23 C5.64 108.44 6.63 99.08 3.24 90.23 C-0.92 82.75 -7.57 76.07 -15.62 73 C-18.54 71.77 -19.98 70.43 -22 68 C-22.5 65.57 -22.5 65.57 -22.5 62.84 C-22.5 61.81 -22.5 60.78 -22.51 59.72 C-22.48 58.62 -22.46 57.51 -22.44 56.38 C-22.42 55.23 -22.41 54.09 -22.4 52.91 C-22.22 44.57 -21.67 36.29 -20.81 28 C-20.71 26.95 -20.61 25.89 -20.51 24.81 C-19.38 15.29 -16.29 7.42 -9.04 0.96 C-6.03 -0.46 -3.27 -0.15 0 0 Z " fill="#FAFAFB" transform="translate(903,460)"/>
<path d="M0 0 C9.45 0.46 16.69 3.18 23.31 10.12 C33.65 22.78 35.57 38.77 35.44 54.62 C35.43 55.93 35.42 57.23 35.41 58.58 C35.12 75.24 33.35 92.04 22.12 105.2 C15.74 111.34 7.72 114.24 -1 115 C-0.71 113.75 -0.43 112.5 -0.13 111.21 C1.09 105.71 2.09 100.18 3.06 94.62 C3.24 93.66 3.41 92.7 3.59 91.7 C5.76 79.27 6.27 66.97 6.31 54.38 C6.32 53.56 6.32 52.75 6.32 51.92 C6.34 37.59 4.95 24.04 2 10 C1.62 8.11 1.24 6.22 0.87 4.32 C0.58 2.88 0.29 1.44 0 0 Z " fill="#FA8208" transform="translate(793,487)"/>
<path d="M0 0 C11.62 10.99 18.78 27.52 19.38 43.38 C19.19 52.88 16.18 60.77 10.04 68.05 C4.89 72.98 -0.64 75.26 -7.75 75.5 C-15.06 75.12 -19.14 72.37 -24 67 C-29.68 60.68 -30.49 54.58 -30.29 46.3 C-29.34 35.52 -22.85 27.97 -15 21 C-14.01 21 -13.02 21 -12 21 C-5.49 15.86 -2.26 7.81 0 0 Z " fill="#FDF3D2" transform="translate(628,259)"/>
<path d="M0 0 C0.33 0 0.66 0 1 0 C1.13 0.56 1.13 0.56 1.78 3.39 C2.74 7.59 3.71 11.8 4.68 16 C5.1 17.81 5.51 19.62 5.93 21.43 C6.53 24.05 7.13 26.68 7.74 29.3 C7.84 29.73 7.84 29.73 8.34 31.9 C9.37 36.38 10.46 40.84 11.63 45.29 C13.25 51.68 14.29 58.15 15.31 64.66 C15.63 66.7 15.95 68.74 16.28 70.78 C18.02 81.66 19.17 91.97 19 103 C-5.02 103.17 -28.99 102.7 -53 102 C-53 101.67 -53 101.34 -53 101 C-43.43 101 -33.86 101 -24 101 C-23.34 98.03 -22.68 95.06 -22 92 C-21.82 91.39 -21.82 91.39 -20.94 88.31 C-19.93 84.53 -19.87 80.9 -19.75 77 C-19.4 71.13 -18.41 68.52 -14.62 64.2 C-3.17 48.61 -3.24 21.39 -2 3 C-1.34 3 -0.68 3 0 3 C0 2.01 0 1.02 0 0 Z " fill="#D3E1E9" transform="translate(788,737)"/>
<path d="M0 0 C0.9 0.52 1.79 1.04 2.72 1.57 C11.88 6.74 20.88 10.21 31 13 C32.17 13.35 33.34 13.7 34.55 14.06 C45.56 17.06 56.84 17.2 68.19 17.25 C69.35 17.26 70.51 17.27 71.71 17.28 C83.39 17.24 94.38 15.49 105.56 12.19 C106.01 12.06 106.01 12.06 108.29 11.4 C114.22 9.64 119.89 7.63 125.53 5.08 C128.3 3.87 131.12 2.92 134 2 C134 1.34 134 0.68 134 0 C134.66 0 135.32 0 136 0 C135.76 7.54 134.07 12.34 129 18 C109.64 35.37 80.62 37.95 55.83 37.16 C38.78 36.21 19.13 30.57 6.43 18.66 C1.19 12.6 -0.27 7.87 0 0 Z " fill="#4E7187" transform="translate(554,699)"/>
<path d="M0 0 C0.3 4.3 0.36 7.11 -1.25 11.12 C-5.49 15.56 -10.4 17.63 -16 20 C-16.62 20.26 -17.24 20.53 -17.88 20.8 C-47.98 33.27 -86.5 33.06 -117 22 C-123.84 19.12 -130.18 15.75 -135 10 C-135.49 7.54 -135.49 7.54 -135.31 5.19 C-135.27 4.4 -135.22 3.61 -135.18 2.79 C-135.12 2.2 -135.06 1.61 -135 1 C-127.85 1.22 -121.9 1.67 -115.48 4.89 C-86.16 18.05 -46.02 14.44 -16.76 3.62 C-11.46 1.7 -5.68 0 0 0 Z " fill="#486C81" transform="translate(690,675)"/>
<path d="M0 0 C0.33 0 0.66 0 1 0 C1.15 4.08 1.23 8.17 1.31 12.25 C1.35 13.41 1.4 14.57 1.44 15.76 C1.56 24.32 1.56 24.32 -1.18 27.64 C-2.11 28.09 -3.04 28.54 -4 29 C-4.85 29.44 -5.71 29.89 -6.59 30.34 C-34.93 42.09 -72.42 48.37 -103 44 C-103 38.72 -103 33.44 -103 28 C-100.62 27.83 -98.24 27.66 -95.79 27.48 C-77.37 26.13 -59.16 24.48 -41 21 C-40.1 20.83 -39.2 20.66 -38.27 20.48 C-8.74 14.74 -8.74 14.74 -1 7 C-0.6 4.68 -0.26 2.34 0 0 Z " fill="#E0EAF0" transform="translate(741,343)"/>
<path d="M0 0 C2.97 0.33 5.94 0.66 9 1 C8.29 3.38 7.57 5.76 6.85 8.14 C6.31 9.96 5.78 11.78 5.27 13.61 C3.95 18.3 2.38 22.46 0.09 26.75 C-1.26 29.54 -2.26 32.4 -3.31 35.31 C-5.78 41.83 -8.99 47.32 -13 53 C-13.68 53.97 -14.36 54.93 -15.06 55.93 C-28.66 74.63 -28.66 74.63 -37 80 C-37.66 80 -38.32 80 -39 80 C-39.66 79.34 -40.32 78.68 -41 78 C-41.66 78 -42.32 78 -43 78 C-43 80.31 -43 82.62 -43 85 C-43.99 84.34 -44.98 83.68 -46 83 C-46.68 83.7 -47.36 84.4 -48.06 85.12 C-59.6 96.54 -72.82 103.18 -87.94 108.69 C-88.81 109.01 -89.69 109.33 -90.59 109.66 C-92.72 110.44 -94.86 111.22 -97 112 C-99.55 109.53 -101.39 107.04 -103.25 104 C-103.79 103.13 -104.33 102.27 -104.89 101.38 C-106 99 -106 99 -105 96 C-104.39 96.05 -103.79 96.09 -103.16 96.14 C-96.16 96.44 -91.31 94.86 -85 92 C-83.44 91.41 -81.88 90.83 -80.31 90.25 C-68.91 85.66 -58.72 79.48 -49 72 C-48.34 71.54 -47.68 71.09 -47 70.62 C-23.88 54.52 -7.33 26.81 0 0 Z " fill="#E2EBF1" transform="translate(899,638)"/>
<path d="M0 0 C5 1 5 1 7 3 C6.34 3 5.68 3 5 3 C5 18.51 5 34.02 5 50 C6.32 50.33 7.64 50.66 9 51 C9 51.66 9 52.32 9 53 C8.44 53.24 7.88 53.49 7.3 53.74 C-15.36 64.31 -29.65 81.82 -38.27 105.06 C-45.44 125.15 -47.4 145.04 -47.31 166.25 C-47.31 167.15 -47.31 168.05 -47.31 168.98 C-47.22 191.27 -46.1 213.79 -33.3 232.92 C-31.88 235.2 -30.93 237.49 -30 240 C-30.99 240 -31.98 240 -33 240 C-54.67 217.69 -55.53 177.57 -55.21 148.74 C-54.81 128.1 -51.85 105.43 -42 87 C-41.56 86.1 -41.12 85.21 -40.67 84.29 C-32.46 68.16 -19.49 56.28 -3 49 C-2.01 49 -1.02 49 0 49 C0 32.83 0 16.66 0 0 Z " fill="#F1F2F3" transform="translate(518,386)"/>
<path d="M0 0 C0.67 0.45 1.33 0.89 2.02 1.36 C17.77 11.68 33.09 16.54 52 15 C56.46 13.96 60.71 12.58 65 11 C65.99 10.67 66.98 10.34 68 10 C69.56 13.11 69.18 16.4 69.19 19.81 C69.2 20.52 69.21 21.24 69.22 21.97 C69.24 26.08 69.05 29.39 67 33 C59.24 40.32 46.45 39.48 36.49 39.22 C20.96 38.57 8.03 32.95 -3.62 22.69 C-6.09 17.87 -5.73 12.8 -4.39 7.64 C-3.3 4.59 -2.3 2.3 0 0 Z " fill="#F5F7F8" transform="translate(868,586)"/>
<path d="M0 0 C1.13 0.22 2.26 0.45 3.43 0.68 C4.61 0.92 5.8 1.16 7.02 1.41 C9.35 1.88 11.67 2.35 14 2.81 C15.03 3.02 16.07 3.23 17.14 3.45 C20.87 4.12 24.64 4.57 28.4 5.04 C28.07 21.21 27.74 37.38 27.4 54.04 C16.14 52.91 16.14 52.91 11.46 51.88 C10.96 51.77 10.96 51.77 8.44 51.22 C7.94 51.11 7.94 51.11 5.4 50.54 C4.36 50.31 3.33 50.09 2.26 49.86 C-5.32 48.18 -5.32 48.18 -7.6 47.04 C-7.6 31.53 -7.6 16.02 -7.6 0.04 C-4.77 -1.38 -3.08 -0.63 0 0 Z " fill="#AEC5D4" transform="translate(530.6015625,388.9609375)"/>
<path d="M0 0 C0 16.17 0 32.34 0 49 C-4.52 49.99 -9.03 50.98 -13.69 52 C-15.1 52.31 -16.52 52.63 -17.98 52.95 C-19.1 53.19 -20.23 53.44 -21.39 53.69 C-22.53 53.94 -23.68 54.19 -24.86 54.45 C-28 55 -28 55 -33 55 C-33 39.49 -33 23.98 -33 8 C-33.99 7.67 -34.98 7.34 -36 7 C-35.33 6.89 -34.65 6.79 -33.96 6.68 C-30.84 6.19 -27.73 5.69 -24.62 5.19 C-24.09 5.1 -24.09 5.1 -21.41 4.69 C-15.42 3.71 -9.71 2.47 -3.94 0.58 C-2 0 -2 0 0 0 Z " fill="#85A8BD" transform="translate(729,386)"/>
<path d="M0 0 C0 15.51 0 31.02 0 47 C0.33 47.17 0.33 47.17 2 48 C-5.87 49.86 -13.4 50.13 -21.46 50.06 C-22.48 50.06 -23.49 50.05 -24.54 50.05 C-27.03 50.04 -29.51 50.02 -32 50 C-32.19 43.49 -32.37 36.97 -32.54 30.46 C-32.6 28.24 -32.66 26.02 -32.72 23.8 C-32.82 20.62 -32.9 17.44 -32.98 14.26 C-33.01 13.26 -33.04 12.27 -33.07 11.24 C-33.09 10.32 -33.11 9.4 -33.14 8.45 C-33.16 7.64 -33.18 6.82 -33.2 5.99 C-33 4 -33 4 -31 2 C-29.11 1.59 -29.11 1.59 -26.82 1.37 C-26.39 1.33 -26.39 1.33 -24.25 1.11 C-23.36 1.03 -22.48 0.96 -21.56 0.88 C-20.71 0.79 -19.86 0.7 -18.98 0.61 C-12.58 0.01 -6.49 0 0 0 Z " fill="#C3D6E2" transform="translate(696,394)"/>
<path d="M0 0 C0.33 0 0.66 0 1 0 C1.33 13.2 1.66 26.4 2 40 C2.5 40.16 2.5 40.16 5 41 C3.95 63.36 -5.68 88.55 -22 104 C-33.85 113.92 -56.15 126 -72 126 C-72 125.34 -72 124.68 -72 124 C-72.99 123.67 -73.98 123.34 -75 123 C-71.91 118.41 -69.17 116.95 -64 115.12 C-53.68 111.29 -44.57 105.9 -36 99 C-35.44 98.59 -34.88 98.17 -34.31 97.75 C-25.25 90.69 -18.55 80.82 -15 70 C-14.47 68.6 -13.93 67.21 -13.39 65.81 C-6.95 48.85 -2.59 30.95 -2.28 12.74 C-2.19 8.11 -1.42 4.37 0 0 Z " fill="#A3C0D1" transform="translate(776,529)"/>
<path d="M0 0 C0 0.33 0 0.66 0 1 C-1.98 1 -3.96 1 -6 1 C-5.92 1.31 -5.92 1.31 -5.51 2.91 C-4.82 7.11 -4.88 11.21 -4.9 15.46 C-4.9 16.36 -4.91 17.26 -4.91 18.19 C-4.91 21.07 -4.92 23.94 -4.94 26.81 C-4.94 28.76 -4.95 30.72 -4.95 32.67 C-4.96 37.45 -4.98 42.22 -5 47 C0.28 47 5.56 47 11 47 C11 47.33 11 47.66 11 48 C7.13 48.15 3.25 48.29 -0.62 48.43 C-2.57 48.5 -4.51 48.57 -6.46 48.64 C-7.09 48.67 -7.09 48.67 -10.29 48.78 C-11.43 48.82 -12.57 48.87 -13.75 48.91 C-19.83 49.04 -25.92 49 -32 49 C-32 33.49 -32 17.98 -32 2 C-42.89 2 -53.78 2 -65 2 C-65 1.67 -65 1.34 -65 1 C-18.2 -0.19 -18.2 -0.19 0 0 Z " fill="#E0EAF0" transform="translate(669,397)"/>
<path d="M0 0 C-0.18 0.63 -0.36 1.27 -0.55 1.92 C-5.04 18.59 -6.54 35.85 -8 53 C-8.6 52.72 -9.2 52.43 -9.82 52.14 C-10.22 51.96 -10.22 51.96 -12.24 51.03 C-12.63 50.84 -12.63 50.84 -14.62 49.92 C-19.39 48.08 -23.37 48.39 -28.19 50.19 C-33.55 53.64 -36.4 56.76 -38 63 C-38.33 63 -38.66 63 -39 63 C-39.43 44.46 -38.29 24.44 -25.15 9.96 C-17.95 3.22 -9.82 -0.07 0 0 Z " fill="#E0E9EE" transform="translate(453,487)"/>
<path d="M0 0 C0.33 1.65 0.33 1.65 2 10 C-2.29 10.49 -6.58 10.96 -10.88 11.44 C-12.06 11.57 -13.24 11.71 -14.46 11.85 C-33.52 13.94 -52.52 14.23 -71.69 14.25 C-72.31 14.25 -72.31 14.25 -75.49 14.26 C-94.49 14.27 -113.17 13.67 -132 11 C-132.33 8.03 -132.66 5.06 -133 2 C-130.41 0.7 -128.92 1.07 -126.04 1.37 C-125.55 1.42 -125.55 1.42 -123.03 1.68 C-122.03 1.78 -121.03 1.89 -120 2 C-83.56 5.89 -44.14 6.85 -7.9 0.45 C-5 0 -5 0 0 0 Z " fill="#365A70" transform="translate(691,384)"/>
<path d="M0 0 C0.33 0 0.66 0 1 0 C1.02 1.07 1.03 2.14 1.05 3.24 C2 7 2 7 5.11 9.29 C6.45 9.96 7.81 10.59 9.19 11.19 C9.91 11.52 10.63 11.86 11.38 12.2 C21.24 16.65 31.14 19.11 41.87 20.28 C51.02 21.28 59.99 23.2 69 25 C69 30.28 69 35.56 69 41 C71.64 41 74.28 41 77 41 C77 41.66 77 42.32 77 43 C68.86 43.25 61.1 42.55 53.06 41.31 C51.89 41.13 50.71 40.96 49.5 40.77 C12.64 34.94 12.64 34.94 1.41 24.99 C-1.49 20.89 -0.71 15.94 -0.44 11.12 C-0.41 10.06 -0.37 8.99 -0.34 7.88 C-0.26 5.25 -0.14 2.63 0 0 Z " fill="#A0BACB" transform="translate(505,344)"/>
<path d="M0 0 C9.45 0.46 16.69 3.18 23.31 10.12 C35.19 24.66 35.48 42.16 35 60 C32.93 57.44 30.95 54.93 29.12 52.19 C24 48.6 18.06 49.16 12 50 C9.06 51.53 9.06 51.53 7 53 C6.99 52.5 6.99 52.5 6.92 49.94 C6.32 33.07 3.41 16.51 0 0 Z " fill="#D8E5ED" transform="translate(793,487)"/>
<path d="M0 0 C4.93 1.04 7.94 3.98 11.25 7.69 C11.48 8.2 11.48 8.2 12.62 10.81 C14.52 14.17 15.57 14.52 19 16.06 C25.67 19.09 29.17 23.6 33.19 29.56 C34.7 34 34.94 38.05 34.25 42.69 C32.25 46.54 30.85 48.29 27.25 50.69 C21.4 51.62 18.02 49.91 13.39 46.62 C10.45 43.96 8.56 40.99 6.64 37.54 C5.25 35.69 5.25 35.69 3.27 35.3 C2.6 35.1 1.94 34.89 1.25 34.69 C0 31.93 -0.97 29.37 -1.88 26.5 C-2.13 25.74 -2.38 24.99 -2.64 24.21 C-3.13 22.72 -3.61 21.24 -4.09 19.75 C-4.67 17.94 -5.28 16.15 -5.91 14.36 C-6.99 10.94 -7.15 8.26 -6.75 4.69 C-4.75 1.68 -3.49 0.87 0 0 Z " fill="#F9FAFA" transform="translate(863.75,524.3125)"/>
<path d="M0 0 C4.31 2.97 8.03 6.46 11.7 10.17 C12.4 10.86 13.09 11.54 13.81 12.25 C35.88 35.34 39.35 71.98 38.9 102.4 C38.74 108.1 38.36 113.75 37.82 119.42 C37.75 120.26 37.67 121.1 37.59 121.97 C37.18 125.72 36.83 127.98 34.7 131.17 C32.64 128.08 32.45 127.43 32.44 123.93 C32.44 123.07 32.43 122.21 32.42 121.33 C32.42 120.4 32.43 119.48 32.43 118.52 C32.41 116.52 32.39 114.53 32.36 112.53 C32.34 109.41 32.32 106.29 32.32 103.17 C32.26 85.26 30.36 68.36 24.45 51.36 C24.15 50.49 23.85 49.63 23.55 48.73 C17.46 31.63 8.16 18.53 -5.49 6.61 C-6.05 6.12 -6.6 5.63 -7.18 5.13 C-12.05 1.04 -17.27 -1.82 -23.3 -3.83 C-23.3 -4.49 -23.3 -5.15 -23.3 -5.83 C-14.08 -8.78 -7.57 -4.91 0 0 Z " fill="#F1F2F3" transform="translate(744.30029296875,441.828125)"/>
<path d="M0 0 C2.79 -0.31 2.79 -0.31 6 0 C7.87 2.09 7.87 2.09 9.44 4.94 C12.14 9.59 15.03 13.76 18.42 17.93 C21.71 22.24 23.57 26.32 25.04 31.54 C25.39 32.78 25.75 34.02 26.11 35.29 C26.2 35.61 26.2 35.61 26.64 37.23 C27.19 39.19 27.75 41.15 28.3 43.12 C31 52.7 31 52.7 31 55 C35.62 55 40.24 55 45 55 C45 55.33 45 55.66 45 56 C41.35 56.17 37.71 56.34 34.06 56.5 C33.06 56.55 32.06 56.6 31.03 56.64 C22.01 57.04 13.02 57.05 4 57 C3.98 52.07 3.96 47.15 3.95 42.22 C3.94 40.55 3.93 38.88 3.92 37.21 C3.88 28.09 3.88 19.07 5 10 C4.34 10 3.68 10 3 10 C0 3.38 0 3.38 0 0 Z " fill="#D8E1E7" transform="translate(456,783)"/>
<path d="M0 0 C0.9 0.52 1.79 1.04 2.72 1.57 C11.88 6.74 20.88 10.21 31 13 C32.08 13.34 33.16 13.68 34.27 14.04 C39.18 15.31 44.1 15.94 49.12 16.56 C50.14 16.69 51.16 16.82 52.2 16.95 C59.46 17.86 66.7 18.59 74 19 C74 19.33 74 19.66 74 20 C68.06 20 62.12 20 56 20 C56 24.95 56 29.9 56 35 C63.26 35 70.52 35 78 35 C77.84 35.33 77.84 35.33 77 37 C52.69 37.59 25.37 36.41 6.43 18.66 C1.19 12.6 -0.27 7.87 0 0 Z " fill="#597C91" transform="translate(554,699)"/>
<path d="M0 0 C0 15.84 0 31.68 0 48 C-7 48 -7 48 -17 45 C-17 29.49 -17 13.98 -17 -2 C-11.9 -4.55 -5.59 -1.12 0 0 Z " fill="#91B2C7" transform="translate(540,391)"/>
<path d="M0 0 C1.47 4.41 0.66 8.42 0.19 13 C0.1 13.92 0.02 14.83 -0.06 15.77 C-0.15 16.65 -0.24 17.53 -0.33 18.44 C-0.41 19.24 -0.49 20.04 -0.57 20.87 C-1 23 -1 23 -3 26 C-3.56 28.39 -3.56 28.39 -4 31.25 C-4.16 32.32 -4.33 33.39 -4.5 34.5 C-4.66 35.65 -4.83 36.81 -5 38 C-5.17 39.19 -5.35 40.37 -5.53 41.59 C-7.32 54.35 -8.23 67.15 -9 80 C-14.28 79.67 -19.56 79.34 -25 79 C-24.49 70.36 -23.17 62.42 -20.94 54.06 C-20.63 52.89 -20.32 51.72 -20 50.51 C-8.62 8.62 -8.62 8.62 0 0 Z " fill="#DBE7ED" transform="translate(457,760)"/>
<path d="M0 0 C0.33 0 0.66 0 1 0 C1.15 4.08 1.23 8.17 1.31 12.25 C1.35 13.41 1.4 14.57 1.44 15.76 C1.56 24.32 1.56 24.32 -1.18 27.64 C-2.11 28.09 -3.04 28.54 -4 29 C-4.85 29.44 -5.71 29.89 -6.59 30.34 C-32.61 41.13 -32.61 41.13 -42 38 C-42 32.72 -42 27.44 -42 22 C-35.29 19.76 -35.29 19.76 -31.9 19.11 C-9 14.47 -9 14.47 -1 7 C-0.19 3.25 -0.19 3.25 0 0 Z " fill="#95B5C7" transform="translate(741,343)"/>
<path d="M0 0 C4.56 3.71 7.77 6.49 8.55 12.48 C8.05 15.67 8.05 15.67 6.05 17.67 C1.88 18.21 -0.27 17.16 -3.7 14.86 C-12.35 9.05 -20.1 8.29 -30.32 8.67 C-32.46 8.74 -34.59 8.81 -36.72 8.86 C-37.19 8.87 -37.19 8.87 -39.55 8.96 C-41.95 8.67 -41.95 8.67 -43.74 7.34 C-45.67 4.67 -45.46 2.87 -44.95 -0.33 C-42.11 -4.23 -39.27 -6.11 -34.51 -7.05 C-21.7 -8.46 -10.62 -7.64 0 0 Z " fill="#0D202F" transform="translate(729.94921875,465.33203125)"/>
<path d="M0 0 C2.03 1.6 2.89 2.4 3.36 4.97 C3.22 10.78 3.22 10.78 1 13 C-1.24 13.15 -1.24 13.15 -4.02 13.02 C-4.53 13 -4.53 13 -7.1 12.92 C-8.18 12.88 -9.26 12.85 -10.38 12.81 C-21.89 12.62 -29.57 13.82 -38.94 20.88 C-42 23 -42 23 -44.88 22.88 C-47 22 -47 22 -48 21 C-48.56 17.01 -48.83 14.44 -46.79 10.9 C-36.06 -2.17 -15.53 -8.5 0 0 Z " fill="#0C1E2D" transform="translate(557,461)"/>
<path d="M0 0 C1.68 0.23 3.36 0.46 5.04 0.71 C5.49 0.77 5.49 0.77 7.78 1.11 C23.11 3.47 41.09 6.25 53.23 16.52 C53.07 17.34 53.07 17.34 52.23 21.52 C48.79 21.66 45.36 21.75 41.92 21.83 C40.94 21.87 39.97 21.92 38.96 21.96 C36.3 22 33.85 22 31.23 21.52 C29.49 19.16 29.49 19.16 28.23 16.52 C13.93 9.61 -4.14 8.58 -19.77 7.52 C-19 6.16 -18.17 4.83 -17.33 3.52 C-16.88 2.78 -16.43 2.03 -15.96 1.27 C-11.55 -2.25 -5.32 -0.59 0 0 Z " fill="#E4ECF1" transform="translate(687.76953125,325.48046875)"/>
<path d="M0 0 C2 2 2 2 3.31 4.31 C6.96 10.12 12.29 14.84 19.07 16.51 C21.19 16.83 23.3 17.06 25.44 17.25 C25.8 17.29 25.8 17.29 27.65 17.48 C29.43 17.67 31.22 17.84 33 18 C33.19 19.05 33.39 20.1 33.59 21.18 C34.94 28.49 36.32 35.76 38 43 C30.18 43.89 23.09 40.75 16.66 36.43 C6.47 28.03 1.74 16.66 0.25 3.69 C0.17 2.47 0.08 1.25 0 0 Z " fill="#92B2C4" transform="translate(415,559)"/>
<path d="M0 0 C0.42 0 0.42 0 2.57 0 C10.32 0.16 16.21 1.63 22.44 6.38 C23.81 8.38 23.81 8.38 23.81 12.38 C22.23 13.19 20.65 14 19.06 14.81 C18.18 15.26 17.3 15.72 16.39 16.18 C8.19 19.97 -3.71 19.81 -12.33 17.55 C-14.42 16.62 -16.29 15.65 -18.19 14.38 C-19.18 13.72 -20.17 13.05 -21.19 12.38 C-20.97 8.54 -20.25 7.43 -17.44 4.69 C-11.6 0.54 -6.99 -0.01 0 0 Z " fill="#F67C06" transform="translate(621.1875,619.625)"/>
<path d="M0 0 C0.52 -0.02 0.52 -0.02 3.16 -0.11 C11.82 -0.21 11.82 -0.21 15.51 2.55 C18.73 6.5 18.62 8.86 18.32 13.78 C17.81 16.38 17.81 16.38 15.88 19.44 C7.46 24.76 -2.6 23.59 -12.19 23.38 C-12.22 19.73 -12.23 16.08 -12.25 12.44 C-12.26 11.4 -12.27 10.36 -12.28 9.28 C-12.28 8.79 -12.28 8.79 -12.29 6.29 C-12.29 5.37 -12.3 4.45 -12.3 3.51 C-12.01 -1.88 -4.09 0.05 0 0 Z " fill="#122432" transform="translate(370.1875,939.625)"/>
<path d="M0 0 C2.41 0.27 2.41 0.27 4.22 2.02 C4.46 2.4 4.46 2.4 5.73 4.27 C6.24 5.02 6.75 5.76 7.28 6.52 C7.65 7.1 8.03 7.68 8.41 8.27 C7.85 8.34 7.28 8.4 6.7 8.47 C-3.74 9.69 -14.03 11.11 -24.21 13.77 C-24.6 13.87 -24.6 13.87 -26.59 14.38 C-32.25 15.94 -35.34 17.4 -38.59 22.27 C-40.65 22.61 -40.65 22.61 -43.16 22.57 C-44.05 22.56 -44.95 22.55 -45.87 22.54 C-46.34 22.53 -46.34 22.53 -48.71 22.46 C-49.66 22.45 -50.6 22.43 -51.57 22.42 C-53.91 22.38 -56.25 22.34 -58.59 22.27 C-58.92 20.95 -59.25 19.63 -59.59 18.27 C-54.05 12.86 -48.9 10.58 -41.59 8.27 C-40.92 8.04 -40.26 7.81 -39.58 7.57 C-34 5.62 -28.44 4.27 -22.65 3.15 C-21.82 2.98 -20.99 2.81 -20.13 2.64 C-13.44 1.32 -6.77 0.72 0 0 Z " fill="#E4EBEF" transform="translate(565.585693359375,324.72607421875)"/>
<path d="M0 0 C2.56 6.68 -1.69 15.84 -4.32 22.18 C-8.96 31.34 -14.94 36.8 -24.59 40.29 C-27.75 41.22 -30.72 41.72 -34 42 C-33.87 41.43 -33.87 41.43 -33.19 38.56 C-31.52 31.1 -30.3 23.54 -29 16 C-28.11 15.94 -27.21 15.87 -26.29 15.81 C-16.61 14.83 -9.72 12.52 -3.28 4.98 C-1.88 3.06 -1.88 3.06 0 0 Z " fill="#8AACC0" transform="translate(826,560)"/>
<path d="M0 0 C9.45 0.46 16.69 3.18 23.31 10.12 C29.68 17.9 32.76 25.98 33 36 C32.32 35.24 31.64 34.47 30.94 33.69 C24.22 27.54 15.69 26.7 7 25 C7 27.31 7 29.62 7 32 C5.11 29.16 4.68 28.11 4.22 24.9 C4.1 24.1 3.98 23.31 3.86 22.49 C3.74 21.64 3.62 20.8 3.5 19.94 C3.25 18.22 2.99 16.5 2.73 14.79 C2.67 14.38 2.67 14.38 2.36 12.29 C1.71 8.16 0.87 4.09 0 0 Z " fill="#DEE7ED" transform="translate(793,487)"/>
<path d="M0 0 C0.66 0 1.32 0 2 0 C1.76 7.54 0.07 12.34 -5 18 C-13.61 25.72 -24.68 30.38 -36 32 C-36 26.72 -36 21.44 -36 16 C-36.99 15.67 -37.98 15.34 -39 15 C-38.43 14.84 -37.85 14.69 -37.26 14.53 C-17.31 9.08 -17.31 9.08 -8.47 5.08 C-5.7 3.87 -2.88 2.92 0 2 C0 1.34 0 0.68 0 0 Z " fill="#2C4C61" transform="translate(688,699)"/>
<path d="M0 0 C0.3 4.3 0.36 7.11 -1.25 11.12 C-7.51 17.67 -16.65 20.38 -25 23.44 C-25.73 23.71 -26.46 23.98 -27.21 24.26 C-31.15 25.64 -32.83 26.04 -37 25 C-37 20.38 -37 15.76 -37 11 C-37.66 10.67 -38.32 10.34 -39 10 C-37.97 9.76 -36.95 9.52 -35.89 9.27 C-28.58 7.51 -21.56 5.58 -14.54 2.88 C-9.93 1.28 -4.91 0 0 0 Z " fill="#2E4E63" transform="translate(690,675)"/>
<path d="M0 0 C0 16.17 0 32.34 0 49 C-3.63 49.66 -7.26 50.32 -11 51 C-11 35.16 -11 19.32 -11 3 C-2 0 -2 0 0 0 Z " fill="#B0C7D5" transform="translate(729,386)"/>
<path d="M0 0 C1.26 -0.04 2.52 -0.08 3.81 -0.12 C4.52 -0.15 5.23 -0.17 5.96 -0.2 C8 0 8 0 11 2 C11.37 3.9 11.37 3.9 11.36 6.23 C11.36 7.11 11.36 7.98 11.37 8.88 C11.35 9.83 11.34 10.78 11.33 11.75 C11.33 12.72 11.32 13.69 11.32 14.69 C11.32 16.74 11.3 18.79 11.28 20.84 C11.25 23.99 11.24 27.13 11.23 30.28 C11.23 32.27 11.21 34.26 11.2 36.25 C11.2 36.72 11.2 36.72 11.19 39.12 C11.18 39.99 11.17 40.86 11.16 41.77 C11.15 42.54 11.15 43.31 11.14 44.1 C11 46 11 46 10 48 C10.66 48.33 11.32 48.66 12 49 C10.19 49.03 8.38 49.05 6.56 49.06 C5.55 49.07 4.54 49.09 3.5 49.1 C1 49 1 49 0 48 C-0.09 46.5 -0.12 44.99 -0.11 43.48 C-0.11 42.52 -0.11 41.56 -0.11 40.57 C-0.11 39.52 -0.1 38.48 -0.1 37.4 C-0.1 36.34 -0.09 35.27 -0.09 34.18 C-0.09 30.76 -0.08 27.35 -0.06 23.94 C-0.06 21.63 -0.05 19.32 -0.05 17.01 C-0.04 11.34 -0.02 5.67 0 0 Z " fill="#D2E1EA" transform="translate(558,395)"/>
<path d="M0 0 C1.56 3.11 1.18 6.4 1.19 9.81 C1.2 10.52 1.21 11.24 1.22 11.97 C1.24 16.96 0.93 21 -2.62 24.69 C-9.99 28.76 -17.82 28.22 -26 28 C-25.69 26.74 -25.38 25.48 -25.06 24.19 C-23.86 18.81 -23.42 13.49 -23 8 C-19.04 7.34 -15.08 6.68 -11 6 C-11 5.34 -11 4.68 -11 4 C-9.54 3.33 -8.08 2.66 -6.62 2 C-5.81 1.63 -5 1.26 -4.16 0.88 C-2 0 -2 0 0 0 Z " fill="#A5C0D1" transform="translate(936,596)"/>
<path d="M0 0 C0 5.28 0 10.56 0 16 C0.99 16.33 1.98 16.66 3 17 C0.46 17.48 -2.08 17.96 -4.62 18.44 C-5.34 18.57 -6.05 18.71 -6.79 18.85 C-8.86 19.24 -10.93 19.62 -13 20 C-13.53 20.1 -13.53 20.1 -16.19 20.59 C-20.48 21.21 -24.66 21.06 -29 21 C-29 15.39 -29 9.78 -29 4 C-19.53 1.96 -9.71 0 0 0 Z " fill="#C1D4E0" transform="translate(699,365)"/>
<path d="M0 0 C0.9 0.52 1.79 1.04 2.72 1.57 C10.85 6.16 18.74 9.47 27.73 11.99 C31 13 31 13 34 15 C33.34 15 32.68 15 32 15 C32.14 17.08 32.29 19.17 32.44 21.25 C32.52 22.41 32.6 23.57 32.68 24.77 C32.93 27.31 33.28 29.56 34 32 C23.45 30.39 12.1 25.21 5 17 C0.73 11.15 -0.25 7.15 0 0 Z " fill="#325368" transform="translate(554,699)"/>
<path d="M0 0 C7.19 0.22 13.21 0.65 19.66 3.95 C24.21 5.99 29.14 6.92 34 8 C33.34 8.33 32.68 8.66 32 9 C32 13.95 32 18.9 32 24 C20.36 23.33 10.24 17.79 1.27 10.61 C-0.44 8.43 -0.31 7.04 -0.19 4.31 C-0.16 3.5 -0.13 2.7 -0.11 1.86 C-0.07 1.25 -0.04 0.63 0 0 Z " fill="#325167" transform="translate(555,676)"/>
<path d="M0 0 C0.95 0.04 1.9 0.08 2.88 0.12 C2.9 3.9 2.92 7.67 2.94 11.44 C2.95 12.51 2.95 13.58 2.96 14.69 C2.97 15.71 2.97 16.74 2.97 17.8 C2.98 18.75 2.98 19.7 2.99 20.67 C2.88 23.12 2.88 23.12 1.88 26.12 C1.44 29.71 1.06 33.29 0.71 36.88 C0.63 37.62 0.55 38.36 0.47 39.12 C0.41 39.79 0.34 40.47 0.27 41.16 C-0.12 43.12 -0.12 43.12 -2.12 47.12 C-5.1 46.47 -8.07 45.8 -11.12 45.12 C-9.41 0.38 -9.41 0.38 0 0 Z " fill="#EFF2F4" transform="translate(918.125,466.875)"/>
<path d="M0 0 C3.4 -0.14 6.79 -0.23 10.19 -0.31 C11.15 -0.35 12.11 -0.4 13.1 -0.44 C20.22 -0.56 20.22 -0.56 24.14 2.27 C26.41 5.6 26.75 7.17 26.49 11.07 C25.64 14.44 23.7 15.96 21 18 C16.63 20.28 12.49 20.24 7.69 20.12 C6.42 20.1 6.42 20.1 0 20 C0 13.4 0 6.8 0 0 Z " fill="#0C1D2B" transform="translate(359,899)"/>
<path d="M0 0 C6.6 0.66 13.2 1.32 20 2 C20 13.78 20 13.78 19 19 C18.67 19.33 18.34 19.66 18 20 C21.96 20 25.92 20 30 20 C26.46 21.77 25.47 22.25 21.84 22.27 C21.05 22.27 20.26 22.27 19.45 22.28 C18.62 22.27 17.79 22.26 16.94 22.25 C16.51 22.25 16.51 22.25 14.37 22.24 C8.1 22.15 2.1 21.54 -4 20 C-5.54 15.25 -4.21 11.68 -2.56 7.19 C-1.72 4.82 -0.87 2.44 0 0 Z " fill="#DBE6EE" transform="translate(893,603)"/>
<path d="M0 0 C7.88 1.12 7.88 1.12 11.62 1.75 C12.41 1.89 13.2 2.02 14.01 2.15 C14.41 2.22 14.41 2.22 16.44 2.56 C16.85 2.63 16.85 2.63 18.94 2.98 C20.96 3.32 22.98 3.66 25 4 C25 9.28 25 14.56 25 20 C27.64 20 30.28 20 33 20 C33 20.66 33 21.32 33 22 C22.21 22.68 11.62 20.66 1 19 C0.67 12.73 0.34 6.46 0 0 Z " fill="#CCDAE4" transform="translate(549,365)"/>
<path d="M0 0 C8.57 -0.26 16.53 0.77 25 2 C25 7.28 25 12.56 25 18 C21.16 18.96 18.18 19.1 14.25 19.06 C13.08 19.05 11.91 19.04 10.7 19.04 C9.81 19.02 8.92 19.01 8 19 C8 18.01 8 17.02 8 16 C5.36 16 2.72 16 0 16 C0 10.72 0 5.44 0 0 Z " fill="#E1EAF0" transform="translate(574,369)"/>
<path d="M0 0 C3.91 0.84 6.53 3.54 9.14 6.46 C10.74 9.66 10.54 11.91 10.14 15.46 C7.75 19.28 5.45 22.02 1.14 23.46 C-2.18 23.96 -2.18 23.96 -5.86 23.46 C-9.84 20.08 -12.68 16.39 -13.18 11.15 C-12.81 6.86 -11.86 5.46 -8.86 2.46 C-5.71 0.36 -3.76 -0.07 0 0 Z " fill="#F1F1F2" transform="translate(556.86328125,513.5390625)"/>
<path d="M0 0 C3.22 1.5 5.75 3.25 8 6 C8.89 10.75 8.69 14.82 6.25 19 C2.87 22 1.11 22.88 -3.44 23.38 C-7.63 22.93 -9.09 21.99 -12 19 C-14.51 14.77 -14.93 10.81 -14 6 C-10.68 0 -6.45 -0.92 0 0 Z " fill="#F3F3F4" transform="translate(698,514)"/>
<path d="M0 0 C6.22 0.52 12.38 1.17 18.56 2 C27.35 3.16 36.15 3.61 45 4 C45 4.33 45 4.66 45 5 C37.41 5 29.82 5 22 5 C22 9.29 22 13.58 22 18 C14.23 18.16 7.5 18.03 0 16 C0 10.72 0 5.44 0 0 Z " fill="#527489" transform="translate(587,685)"/>
<path d="M0 0 C0 4.62 0 9.24 0 14 C1.32 14.33 2.64 14.66 4 15 C-14.15 20.95 -14.15 20.95 -20 19 C-20 13.72 -20 8.44 -20 3 C-15.96 1.65 -12.44 0.58 -8.31 -0.19 C-7.38 -0.37 -6.45 -0.55 -5.49 -0.73 C-3 -1 -3 -1 0 0 Z " fill="#A4BFCF" transform="translate(719,362)"/>
<path d="M0 0 C-0.11 1.77 -0.24 3.54 -0.38 5.31 C-0.44 6.3 -0.51 7.28 -0.59 8.3 C-1 11 -1 11 -3 14 C-3.33 13.34 -3.66 12.68 -4 12 C-6.86 12.76 -9.71 13.54 -12.56 14.31 C-13.36 14.53 -14.16 14.74 -14.99 14.96 C-19.87 16.29 -24.4 17.89 -29 20 C-28.74 18.6 -28.47 17.21 -28.19 15.81 C-28.11 15.42 -28.11 15.42 -27.73 13.46 C-25.79 6.94 -22.19 4.45 -16.5 1.23 C-11.72 -1.12 -4.95 -2.47 0 0 Z " fill="#FAFBFB" transform="translate(449,500)"/>
<path d="M0 0 C6.17 2.28 12.09 5.12 18 8 C15.69 9.17 13.38 10.27 11 11.31 C7.5 13.28 6.03 14.52 4 18 C3.1 21.64 2.49 25.29 2 29 C1.67 29 1.34 29 1 29 C0.93 28.54 0.93 28.54 0.55 26.22 C-1.45 15.25 -4.77 9.24 -13.39 2.32 C-15.03 0.97 -16.52 -0.47 -18 -2 C-13.15 -4.42 -5.12 -1.48 0 0 Z " fill="#E3ECF1" transform="translate(908,535)"/>
<path d="M0 0 C0.66 0.33 1.32 0.66 2 1 C1.64 1.28 1.64 1.28 -0.2 2.69 C-11.8 11.85 -19.61 22.13 -22 37 C-22.28 40.13 -22.34 43.23 -22.31 46.38 C-22.31 47.21 -22.3 48.04 -22.3 48.89 C-22.1 58.89 -19.86 66.39 -14.4 74.81 C-13.11 76.82 -12.03 78.84 -11 81 C-19.81 74.77 -25.67 64.46 -28 54 C-29.44 40 -26.89 27.07 -18 16 C-12.58 9.89 -6.94 4.36 0 0 Z " fill="#98B5C8" transform="translate(520,496)"/>
<path d="M0 0 C2.32 -0.02 4.51 0.23 6.81 0.55 C7.27 0.58 7.27 0.58 9.58 0.73 C14.61 1.08 14.61 1.08 16.81 1.55 C17.14 2.21 17.47 2.87 17.81 3.55 C19.85 4.04 19.85 4.04 22.44 4.42 C27.34 5.3 30.66 6.84 34.81 9.55 C34.81 10.54 34.81 11.53 34.81 12.55 C29.62 13.69 25.81 13.47 20.63 12.23 C11.14 9.98 1.51 9.32 -8.19 8.55 C-7.29 7.21 -6.37 5.9 -5.45 4.58 C-4.94 3.85 -4.44 3.11 -3.91 2.35 C-2.19 0.55 -2.19 0.55 0 0 Z " fill="#B6CBD7" transform="translate(676.185546875,324.45263671875)"/>
<path d="M0 0 C3.88 1.88 3.88 1.88 5 3 C5.07 4.69 5.08 6.38 5.06 8.06 C5.05 8.98 5.04 9.9 5.04 10.85 C5.02 11.56 5.01 12.27 5 13 C4.34 12.01 3.68 11.02 3 10 C1.84 13.49 1.69 16.8 1.5 20.44 C1.13 27.48 1.13 27.48 0.5 29.96 C-0.02 32.1 -0.19 34.06 -0.28 36.26 C-0.32 37.05 -0.36 37.84 -0.39 38.65 C-0.47 40.31 -0.54 41.96 -0.61 43.62 C-0.64 44.41 -0.68 45.2 -0.72 46.01 C-0.73 46.37 -0.73 46.37 -0.81 48.18 C-1 50 -1 50 -2 52 C-4.65 52.59 -7.29 52.74 -10 53 C-9.67 52.84 -9.67 52.84 -8 52 C-7.54 49.02 -7.2 46.12 -6.94 43.12 C-6.85 42.25 -6.77 41.38 -6.68 40.47 C-6.34 37 -6.04 33.52 -5.79 30.03 C-5.34 23.55 -4.2 17.25 -3 10.88 C-2.82 9.92 -2.64 8.97 -2.46 7.99 C-2.29 7.11 -2.11 6.22 -1.94 5.3 C-1.78 4.5 -1.63 3.7 -1.46 2.87 C-1 1 -1 1 0 0 Z " fill="#DEE9F0" transform="translate(903,461)"/>
<path d="M0 0 C2.54 0.26 2.54 0.26 4.34 2.01 C4.84 2.76 5.34 3.5 5.85 4.26 C6.36 5.01 6.88 5.75 7.4 6.51 C7.78 7.09 8.15 7.67 8.54 8.26 C7.95 8.33 7.36 8.4 6.76 8.48 C-4.28 9.81 -14.99 11.32 -25.66 14.49 C-28.46 15.26 -28.46 15.26 -31.46 15.26 C-31.79 13.94 -32.12 12.62 -32.46 11.26 C-28.11 8.07 -24.37 6.41 -19.09 5.01 C-17.84 4.68 -16.59 4.34 -15.31 4 C-14.37 3.76 -13.43 3.51 -12.46 3.26 C-12.46 2.6 -12.46 1.94 -12.46 1.26 C-10.9 1.09 -9.34 0.93 -7.77 0.76 C-6.9 0.67 -6.03 0.58 -5.14 0.48 C-3.42 0.34 -1.71 0.18 0 0 Z " fill="#B9CEDA" transform="translate(565.460205078125,324.736328125)"/>
<path d="M0 0 C0.66 3.3 1.32 6.6 2 10 C-8.39 11.31 -18.51 12.33 -29 12 C-27.68 11.67 -26.36 11.34 -25 11 C-25 8.36 -25 5.72 -25 3 C-21.26 1.75 -17.52 1.38 -13.62 0.94 C-12.87 0.85 -12.11 0.76 -11.34 0.66 C-7.49 0.21 -3.9 0 0 0 Z " fill="#203D51" transform="translate(691,384)"/>
<path d="M0 0 C3.89 2.4 7.45 5.13 11 8 C10.34 8.66 9.68 9.32 9 10 C8.67 9.67 8.34 9.34 8 9 C2.92 10.89 -0.58 12.6 -4 17 C-4.95 19.68 -5.48 22.19 -6 25 C-6.33 25 -6.66 25 -7 25 C-7.33 27.64 -7.66 30.28 -8 33 C-8.33 33 -8.66 33 -9 33 C-9.06 31.76 -9.12 30.52 -9.18 29.24 C-9.27 27.6 -9.35 25.95 -9.44 24.31 C-9.48 23.5 -9.52 22.68 -9.56 21.84 C-9.77 17.78 -10.16 13.98 -11 10 C-11.06 8.4 -11.09 6.79 -11.06 5.19 C-11.05 4.4 -11.04 3.61 -11.04 2.79 C-11.03 2.5 -11.03 2.5 -11 1 C-7.03 -0.02 -4.14 -0.59 0 0 Z " fill="#D0DEE7" transform="translate(718,670)"/>
<path d="M0 0 C4.5 1.44 7.55 3.94 10.94 7.12 C11.47 7.62 11.99 8.11 12.54 8.62 C21.39 17.04 27.54 26.35 28.2 38.82 C28.47 53.42 25.74 64.03 17 76 C16.5 76.33 16.5 76.33 14 78 C15.67 73.68 17.67 69.62 19.78 65.5 C20.18 64.67 20.59 63.85 21 63 C21.37 62.29 21.75 61.57 22.13 60.84 C25.73 49.06 23.86 33.14 19 22 C17.24 18.78 15.27 15.89 13 13 C12.4 12.13 11.8 11.27 11.19 10.38 C8.36 7.31 5.17 4.93 1.83 2.45 C1.22 1.97 0.62 1.49 0 1 C0 0.67 0 0.34 0 0 Z " fill="#A3BCCD" transform="translate(727,496)"/>
<path d="M0 0 C0.25 5.14 0.06 9.31 -1.44 14.25 C-3.3 20.44 -3.7 26.56 -4 33 C-4.33 33 -4.66 33 -5 33 C-5.03 32.38 -5.05 31.77 -5.08 31.13 C-5.55 24.07 -6.83 17.39 -11.81 12.06 C-14.78 10.62 -17.81 9.8 -21 9 C-18.13 5.91 -15.29 3.76 -11.62 1.69 C-11.17 1.42 -11.17 1.42 -8.85 0.07 C-5.46 -1.2 -3.47 -0.88 0 0 Z " fill="#D0DEE6" transform="translate(538,672)"/>
<path d="M0 0 C0.33 0.62 0.66 1.24 1 1.88 C3.44 4.47 5.55 4.73 8.95 5.46 C15.12 7.09 19.4 11.99 23 17 C24.38 19.94 24.38 19.94 25 22 C20.48 21.42 16.47 20.18 12.19 18.7 C9.49 17.84 6.81 17.36 4 17 C4 19.31 4 21.62 4 24 C1.61 20.42 1.41 17.94 0.88 13.69 C0.71 12.39 0.54 11.1 0.37 9.76 C0.05 6.47 -0.07 3.3 0 0 Z " fill="#F7F8F9" transform="translate(796,495)"/>
<path d="M0 0 C0.66 0.66 1.32 1.32 2 2 C4.33 2.34 6.67 2.67 9 3 C9.99 3.66 10.98 4.32 12 5 C11.6 11.58 10.87 17.98 8 24 C7.34 24.33 6.68 24.66 6 25 C-1.79 18.73 -1.79 18.73 -2.27 14.77 C-2.23 9.45 -1.75 5.03 0 0 Z " fill="#DCE6EC" transform="translate(865,589)"/>
<path d="M0 0 C2.49 1.2 4.68 2.45 7 4 C7.97 7.3 8.12 10.44 8.1 13.86 C8.09 14.75 8.09 15.64 8.09 16.55 C8.08 17.46 8.07 18.37 8.06 19.31 C8.06 20.24 8.05 21.18 8.05 22.13 C8.04 24.42 8.02 26.71 8 29 C5.95 26.45 3.93 23.9 2 21.25 C-2.58 17.81 -7.41 18.1 -13 18 C-13 17.67 -13 17.34 -13 17 C-10.03 17 -7.06 17 -4 17 C-3.88 16.09 -3.75 15.18 -3.62 14.25 C-3 11 -3 11 -2 9.06 C-0.58 6.14 -0.37 3.21 0 0 Z " fill="#BFCFD6" transform="translate(820,518)"/>
<path d="M0 0 C1.94 1.09 1.94 1.09 4 3 C7.62 16.72 3.34 32.39 1 46 C0.34 46.16 0.34 46.16 -3 47 C-3.31 28.94 -3.31 28.94 -1 22 C-0.93 20.38 -0.92 18.77 -0.94 17.15 C-0.95 16.22 -0.95 15.28 -0.96 14.32 C-0.97 13.35 -0.99 12.38 -1 11.38 C-1.03 9.45 -1.05 7.52 -1.06 5.59 C-1.07 4.73 -1.09 3.88 -1.1 2.99 C-1 1 -1 1 0 0 Z " fill="#94ACBC" transform="translate(921,468)"/>
<path d="M0 0 C0.99 0.33 1.98 0.66 3 1 C2.67 16.84 2.34 32.68 2 49 C0.68 48.67 -0.64 48.34 -2 48 C-2 32.49 -2 16.98 -2 1 C-1.34 0.67 -0.68 0.34 0 0 Z " fill="#B4CEDC" transform="translate(525,388)"/>
<path d="M0 0 C0.66 0 1.32 0 2 0 C2.03 3.96 2.05 7.92 2.06 11.88 C2.07 12.98 2.08 14.09 2.09 15.23 C2.11 21.89 1.83 28.39 1 35 C-4.12 32.52 -4.12 32.52 -6 30 C-6.56 23.47 -4.64 16.39 -3.56 9.94 C-3.44 9.19 -3.32 8.44 -3.19 7.66 C-2.24 2.24 -2.24 2.24 0 0 Z " fill="#F7F7F8" transform="translate(941,492)"/>
<path d="M0 0 C0.33 0 0.66 0 1 0 C2.67 10.67 2.2 21.3 1 32 C1.33 32 1.66 32 2 32 C2.18 37.22 1.97 41.07 0 46 C-1.32 46 -2.64 46 -4 46 C-4.03 42.92 -4.05 39.83 -4.06 36.75 C-4.07 35.88 -4.08 35 -4.09 34.11 C-4.09 33.26 -4.09 32.42 -4.1 31.55 C-4.1 31.16 -4.1 31.16 -4.11 29.2 C-4 27 -3.56 25.12 -3 23 C-2.82 20.59 -2.68 18.17 -2.56 15.75 C-2.26 10.28 -1.61 5.25 0 0 Z " fill="#AAC2D0" transform="translate(906,466)"/>
<path d="M0 0 C0.33 0 0.66 0 1 0 C1.33 1.65 1.66 3.3 2 5 C2.33 5 2.66 5 3 5 C3.75 17.91 -0.78 30.16 -8.8 40.27 C-12.12 43.76 -15.44 46.28 -20 48 C-21.32 48 -22.64 48 -24 48 C-24 47.34 -24 46.68 -24 46 C-25.98 46 -27.96 46 -30 46 C-30 45.67 -30 45.34 -30 45 C-29.38 45.01 -28.77 45.02 -28.13 45.03 C-22 44.81 -17.86 43.56 -13.18 39.55 C-5.24 30.23 -1.13 18.08 -0.38 6 C-0.3 4.87 -0.23 3.73 -0.15 2.56 C-0.1 1.72 -0.05 0.87 0 0 Z " fill="#E3ECF2" transform="translate(940,534)"/>
<path d="M0 0 C0.33 0 0.66 0 1 0 C0.98 1.05 0.96 2.1 0.94 3.19 C2 7 2 7 4.07 8.58 C6.33 9.81 8.66 10.91 11 12 C10.67 17.61 10.34 23.22 10 29 C4.5 27.9 3.14 27.52 0 23 C-0.61 19.04 -0.47 15.18 -0.31 11.19 C-0.29 10.11 -0.27 9.04 -0.24 7.93 C-0.19 5.29 -0.1 2.64 0 0 Z " fill="#C2D2DC" transform="translate(505,344)"/>
<path d="M0 0 C0.82 0.16 0.82 0.16 5 1 C5.12 1.86 5.25 2.72 5.38 3.61 C6.72 11.55 8.81 18.7 11.94 26.12 C12.27 26.93 12.61 27.73 12.96 28.56 C14.85 32.91 16.89 36.37 20 40 C20.75 42.31 20.75 42.31 21 44 C20.01 44 19.02 44 18 44 C8.93 34.67 0.34 15.04 -0.1 2.14 C-0.07 1.43 -0.03 0.73 0 0 Z " fill="#E4E9EC" transform="translate(467,582)"/>
<path d="M0 0 C0.33 0.66 0.66 1.32 1 2 C1.99 2 2.98 2 4 2 C4.65 3.58 5.29 5.17 5.94 6.75 C6.3 7.63 6.66 8.51 7.03 9.42 C7.85 11.61 8.49 13.72 9 16 C8.72 16.22 8.72 16.22 7.32 17.32 C3.02 20.86 0.11 23.3 -1 29 C-1.33 29 -1.66 29 -2 29 C-2.23 19.1 -1.87 9.77 0 0 Z " fill="#CBD8DF" transform="translate(416,521)"/>
<path d="M0 0 C0.48 0.05 0.48 0.05 2.93 0.3 C4.11 0.43 5.28 0.55 6.5 0.69 C7.25 0.77 8 0.85 8.78 0.94 C14.02 1.51 19.26 2.09 24.5 2.69 C24.5 3.02 24.5 3.35 24.5 3.69 C23.7 3.72 22.91 3.76 22.09 3.8 C16.18 4.17 11.53 4.47 6.5 7.69 C6.83 8.35 7.16 9.01 7.5 9.69 C3.21 9.69 -1.08 9.69 -5.5 9.69 C-5.83 6.72 -6.16 3.75 -6.5 0.69 C-4 -0.56 -2.77 -0.29 0 0 Z " fill="#203D51" transform="translate(564.5,385.3125)"/>
<path d="M0 0 C1.44 0.11 2.88 0.24 4.31 0.38 C4.71 0.41 4.71 0.41 6.74 0.59 C9 1 9 1 12 3 C11.34 3 10.68 3 10 3 C10.14 5.08 10.29 7.17 10.44 9.25 C10.52 10.41 10.6 11.57 10.68 12.77 C10.93 15.31 11.28 17.56 12 20 C10.35 19.67 8.7 19.34 7 19 C6.67 18.01 6.34 17.02 6 16 C5.17 15.38 4.35 14.76 3.5 14.12 C1 12 1 12 0.19 9.69 C-0.04 6.45 -0.06 3.24 0 0 Z " fill="#40637A" transform="translate(576,711)"/>
<path d="M0 0 C4.38 3.77 6.99 8.57 9.88 13.5 C10.4 14.35 10.92 15.21 11.46 16.09 C11.95 16.92 12.43 17.74 12.93 18.59 C13.38 19.34 13.82 20.09 14.28 20.87 C15 23 15 23 14.26 25.13 C12.74 27.38 10.98 29.15 9 31 C8.34 30.67 7.68 30.34 7 30 C6.24 27.56 6.24 27.56 5.53 24.36 C5.4 23.78 5.4 23.78 4.74 20.87 C4.48 19.65 4.21 18.44 3.94 17.19 C3.41 14.81 2.87 12.42 2.34 10.04 C2.11 8.98 1.87 7.92 1.63 6.82 C1.12 4.54 0.58 2.27 0 0 Z " fill="#122333" transform="translate(785,724)"/>
<path d="M0 0 C0.45 4.5 0.37 6.47 -2.25 10.25 C-4.43 12.43 -6.39 14.38 -9 16 C-9.66 16 -10.32 16 -11 16 C-11.33 16.99 -11.66 17.98 -12 19 C-12 13.72 -12 8.44 -12 3 C-12.99 2.67 -13.98 2.34 -15 2 C-9.77 0.53 -5.42 -0.23 0 0 Z " fill="#3B5F75" transform="translate(664,712)"/>
<path d="M0 0 C0.23 9.28 -0.1 17.87 -2 27 C-3.98 26.34 -5.96 25.68 -8 25 C-8.61 6.8 -8.61 6.8 -3.44 1.25 C-1 0 -1 0 0 0 Z " fill="#F3F5F7" transform="translate(930,490)"/>
<path d="M0 0 C6.69 12.58 5.91 28.55 3 42 C0.12 39.55 0.01 39.16 -0.34 35.08 C-0.34 33.44 -0.32 31.81 -0.29 30.18 C-0.29 29.31 -0.28 28.45 -0.28 27.57 C-0.26 24.81 -0.23 22.06 -0.19 19.31 C-0.17 17.45 -0.16 15.58 -0.15 13.72 C-0.11 9.14 -0.06 4.57 0 0 Z " fill="#D8E4EB" transform="translate(777,531)"/>
<path d="M0 0 C0.76 0.01 1.51 0.03 2.29 0.04 C3.14 0.06 4 0.07 4.88 0.08 C5.34 0.09 5.34 0.09 7.69 0.15 C8.64 0.17 9.59 0.18 10.57 0.2 C12.58 0.25 14.59 0.29 16.6 0.34 C19.68 0.41 22.76 0.46 25.85 0.52 C27.8 0.56 29.75 0.6 31.69 0.65 C32.16 0.65 32.16 0.65 34.5 0.69 C34.93 0.7 34.93 0.7 37.1 0.76 C37.86 0.78 38.62 0.79 39.39 0.81 C41.26 1.1 41.26 1.1 43.26 3.1 C35.61 4.33 27.99 4.25 20.26 4.22 C19.57 4.22 18.88 4.22 18.18 4.22 C8.18 4.2 -1.77 4 -11.74 3.1 C-11.74 2.77 -11.74 2.44 -11.74 2.1 C-11.42 2.07 -11.42 2.07 -9.81 1.91 C-9.39 1.87 -9.39 1.87 -7.3 1.66 C-6.48 1.58 -5.65 1.5 -4.81 1.41 C-2.57 1.07 -2.18 0.12 0 0 Z " fill="#ADC2CE" transform="translate(600.7392425537109,659.9042510986328)"/>
<path d="M0 0 C0.82 0.16 0.82 0.16 5 1 C5.02 1.48 5.02 1.48 5.11 3.89 C5.7 15.45 7.18 24.89 13.6 34.81 C14.89 36.82 15.97 38.84 17 41 C8.24 34.8 2.25 24.44 0 14 C-0.29 9.31 -0.25 4.69 0 0 Z " fill="#A0BACC" transform="translate(492,536)"/>
<path d="M0 0 C0.33 0 0.66 0 1 0 C1.33 13.2 1.66 26.4 2 40 C2.99 40.33 3.98 40.66 5 41 C4.89 42.58 4.76 44.17 4.62 45.75 C4.56 46.63 4.49 47.51 4.41 48.42 C4 50.99 3.29 52.76 2 55 C-0.83 52.17 -0.31 50.2 -0.41 46.24 C-0.43 45.58 -0.45 44.92 -0.47 44.23 C-0.53 42.11 -0.58 39.99 -0.62 37.88 C-0.66 36.44 -0.7 35 -0.74 33.57 C-0.84 30.04 -0.92 26.52 -1 23 C-1.33 23 -1.66 23 -2 23 C-2.05 20.48 -2.09 17.96 -2.12 15.44 C-2.14 14.73 -2.16 14.03 -2.18 13.3 C-2.22 8.48 -1.53 4.58 0 0 Z " fill="#C0D1DB" transform="translate(776,529)"/>
<path d="M0 0 C0.33 0.66 0.66 1.32 1 2 C3.35 3.35 5.7 4.26 8.25 5.19 C13.74 7.49 17.85 11.85 22 16 C22 16.99 22 17.98 22 19 C19.52 17.9 17.68 16.73 15.56 15 C10.36 10.94 5.41 10.57 -1 10 C-0.67 6.7 -0.34 3.4 0 0 Z " fill="#6A8EA5" transform="translate(881,528)"/>
<path d="M0 0 C2.57 2.57 2.29 4.35 2.33 7.87 C2.32 8.67 2.32 9.48 2.31 10.31 C2.31 11.14 2.31 11.97 2.31 12.83 C2.16 22.67 0.62 32.31 -1 42 C-1.66 42 -2.32 42 -3 42 C-3.03 40.67 -3.05 39.33 -3.06 38 C-3.07 37.26 -3.09 36.51 -3.1 35.75 C-3 32.9 -2.63 30.14 -2.25 27.31 C-1.65 21.8 -1.59 16.23 -1.39 10.69 C-1.36 9.75 -1.32 8.8 -1.28 7.82 C-1.25 6.97 -1.22 6.11 -1.19 5.23 C-1 3 -1 3 0 0 Z " fill="#A7C1D1" transform="translate(934,478)"/>
<path d="M0 0 C0.33 0 0.66 0 1 0 C1.51 16.08 -0.26 27.67 -10 41 C-10.99 41.66 -11.98 42.32 -13 43 C-11.71 39.64 -10.25 36.49 -8.56 33.31 C-4.26 24.67 -2.64 16.94 -2.38 7.36 C-2.2 2.2 -2.2 2.2 0 0 Z " fill="#97B5C8" transform="translate(754,531)"/>
</svg>
